<svg fill="none" stroke-linecap="square" stroke-miterlimit="10" viewBox="0 0 960 720" xmlns="http://www.w3.org/2000/svg" xmlns:xlink="http://www.w3.org/1999/xlink"><clipPath id="a"><path d="m0 0h960v720h-960z"/></clipPath><g clip-path="url(#a)"><path d="m0 0h960v720h-960z" fill="none"/><path d="m61.82152 47.92651c0-16.003212 12.973164-28.97638 28.976376-28.97638s28.97638 12.973167 28.97638 28.97638c0 16.003212-12.973167 28.976376-28.97638 28.976376-16.003212 0-28.976376-12.973164-28.976376-28.976376z" fill="#d9d2e9" fill-rule="evenodd"/><path d="m78.49635 39.260426c0-1.6669998 1.3513718-3.0183716 3.0183716-3.0183716 1.6670074 0 3.0183716 1.3513718 3.0183716 3.0183716s-1.3513641 3.0183716-3.0183716 3.0183716c-1.6669998 0-3.0183716-1.3513718-3.0183716-3.0183716m18.566345 0c0-1.6669998 1.3513718-3.0183716 3.0183716-3.0183716 1.6670074 0 3.0183792 1.3513718 3.0183792 3.0183716s-1.3513718 3.0183716-3.0183792 3.0183716c-1.6669998 0-3.0183716-1.3513718-3.0183716-3.0183716" fill="#ada7ba" fill-rule="evenodd"/><path d="m75.092514 60.5633q15.705383 10.786163 31.374092 0" fill="none"/><path d="m61.82152 47.92651c0-16.003212 12.973164-28.97638 28.976376-28.97638s28.97638 12.973167 28.97638 28.97638c0 16.003212-12.973167 28.976376-28.97638 28.976376-16.003212 0-28.976376-12.973164-28.976376-28.976376z" fill="none"/><path d="m78.49635 39.260426c0-1.6669998 1.3513718-3.0183716 3.0183716-3.0183716 1.6670074 0 3.0183716 1.3513718 3.0183716 3.0183716s-1.3513641 3.0183716-3.0183716 3.0183716c-1.6669998 0-3.0183716-1.3513718-3.0183716-3.0183716m18.566345 0c0-1.6669998 1.3513718-3.0183716 3.0183716-3.0183716 1.6670074 0 3.0183792 1.3513718 3.0183792 3.0183716s-1.3513718 3.0183716-3.0183792 3.0183716c-1.6669998 0-3.0183716-1.3513718-3.0183716-3.0183716" fill-rule="evenodd" stroke="#000" stroke-linecap="butt" stroke-linejoin="round"/><path d="m75.092514 60.5633q15.705383 10.786163 31.374092 0" fill-rule="evenodd" stroke="#000" stroke-linecap="butt" stroke-linejoin="round"/><path d="m61.82152 47.92651c0-16.003212 12.973164-28.97638 28.976376-28.97638s28.97638 12.973167 28.97638 28.97638c0 16.003212-12.973167 28.976376-28.97638 28.976376-16.003212 0-28.976376-12.973164-28.976376-28.976376z" fill-rule="evenodd" stroke="#000" stroke-linecap="butt" stroke-linejoin="round"/><path d="m125.35433 25.643045h161.73227v44.566933h-161.73227z" fill="none"/><path d="m135.22932 52.089294 3.375-.328125q.296875 1.703125 1.21875 2.5.9375.796875 2.53125.796875 1.671875 0 2.515625-.703125.859375-.71875.859375-1.671875 0-.609375-.359375-1.03125-.359375-.421875-1.25-.75-.609375-.203125-2.78125-.75-2.78125-.6875-3.90625-1.6875-1.59375-1.421875-1.59375-3.46875 0-1.3125.75-2.453125.75-1.140625 2.140625-1.734375 1.40625-.59375 3.390625-.59375 3.234375 0 4.859375 1.421875 1.640625 1.40625 1.71875 3.78125l-3.46875.140625q-.21875-1.3125-.953125-1.890625-.734375-.59375-2.203125-.59375-1.5 0-2.359375.625-.546875.40625-.546875 1.0625 0 .609375.515625 1.046875.65625.546875 3.1875 1.15625 2.53125.59375 3.734375 1.234375 1.21875.640625 1.90625 1.75.6875 1.09375.6875 2.734375 0 1.46875-.828125 2.765625-.8125 1.28125-2.3125 1.921875-1.5.625-3.75.625-3.25 0-5-1.5-1.75-1.515625-2.078125-4.40625zm16.773438 5.59375v-17.1875h3.46875v17.1875zm10.636719 0v-14.28125h-5.09375v-2.90625h13.65625v2.90625h-5.09375v14.28125zm10.800781 0v-17.1875h12.734375v2.90625h-9.265625v3.8125h8.625v2.890625h-8.625v4.6875h9.59375v2.890625zm22.644531-17.1875h3.46875v9.3125q0 2.21875.140625 2.875.21875 1.046875 1.046875 1.6875.84375.640625 2.296875.640625 1.484375 0 2.234375-.59375.75-.609375.890625-1.484375.15625-.890625.15625-2.921875v-9.515625h3.46875v9.03125q0 3.09375-.28125 4.375-.28125 1.265625-1.046875 2.15625-.75.875-2.015625 1.40625-1.265625.515625-3.296875.515625-2.46875 0-3.734375-.5625-1.265625-.578125-2.015625-1.484375-.734375-.90625-.96875-1.90625-.34375-1.484375-.34375-4.359375zm16.488281 11.59375 3.375-.328125q.296875 1.703125 1.21875 2.5.9375.796875 2.53125.796875 1.671875 0 2.515625-.703125.859375-.71875.859375-1.671875 0-.609375-.359375-1.03125-.359375-.421875-1.25-.75-.609375-.203125-2.78125-.75-2.78125-.6875-3.90625-1.6875-1.59375-1.421875-1.59375-3.46875 0-1.3125.75-2.453125.75-1.140625 2.140625-1.734375 1.40625-.59375 3.390625-.59375 3.234375 0 4.859375 1.421875 1.640625 1.40625 1.71875 3.78125l-3.46875.140625q-.21875-1.3125-.953125-1.890625-.734375-.59375-2.203125-.59375-1.5 0-2.359375.625-.546875.40625-.546875 1.0625 0 .609375.515625 1.046875.65625.546875 3.1875 1.15625 2.53125.59375 3.734375 1.234375 1.21875.640625 1.90625 1.75.6875 1.09375.6875 2.734375 0 1.46875-.828125 2.765625-.8125 1.28125-2.3125 1.921875-1.5.625-3.75.625-3.25 0-5-1.5-1.75-1.515625-2.078125-4.40625zm16.882812 5.59375v-17.1875h12.734375v2.90625h-9.265625v3.8125h8.625v2.890625h-8.625v4.6875h9.59375v2.890625zm16.023438 0v-17.1875h7.296875q2.75 0 4.0000153.46875 1.25.46875 2 1.65625.75 1.171875.75 2.703125 0 1.921875-1.140625 3.1875-1.140625 1.265625-3.3906403 1.59375 1.1250153.65625 1.8437653 1.4375.734375.78125 1.984375 2.78125l2.09375 3.359375h-4.140625l-2.5156403-3.734375q-1.328125-2.015625-1.828125-2.53125-.484375-.515625-1.046875-.703125-.546875-.203125-1.734375-.203125h-.703125v7.171875zm3.46875-9.921875h2.5625q2.5 0 3.109375-.203125.625-.21875.96875-.734375.359375-.515625.359375-1.28125 0-.875-.46875-1.40625-.453125-.53125-1.296875-.671875-.421875-.0625-2.53125-.0625h-2.703125z" fill="#674ea7"/><path d="m59.59449 88.95801h129.88977v94.67717h-129.88977z" fill="#674ea7" fill-rule="evenodd"/><path d="m93.88261 128.01346q-.25 2.09375-1.5625 3.25-1.296875 1.140625-3.46875 1.140625-2.34375 0-3.765625-1.6875-1.421875-1.6875-1.421875-4.5156174v-1.265625q0-1.859375.65625-3.25.671875-1.40625 1.875-2.15625 1.21875-.765625 2.8125-.765625 2.109375 0 3.390625 1.1875 1.28125 1.171875 1.484375 3.265625h-1.765625q-.21875-1.578125-.984375-2.28125-.765625-.71875-2.125-.71875-1.671875 0-2.625 1.234375-.953125 1.234375-.953125 3.53125v1.28125q0 2.1562424.890625 3.4374924.90625 1.265625 2.53125 1.265625 1.453125 0 2.234375-.65625.78125-.65625 1.03125-2.296875zm12.58046-1.9999924q0 1.953125-.65625 3.4062424-.640625 1.453125-1.84375 2.21875-1.203125.765625-2.8125.765625-1.5625 0-2.78125-.765625-1.203125-.78125-1.875-2.203125-.671875-1.421875-.6875-3.2968674v-.96875q0-1.90625.65625-3.375.671875-1.46875 1.890625-2.25 1.21875-.78125 2.78125-.78125 1.59375 0 2.8125.78125 1.21875.765625 1.859375 2.234375.65625 1.453125.65625 3.390625zm-1.734375-.859375q0-2.359375-.953125-3.609375-.9375-1.265625-2.640625-1.265625-1.65625 0-2.609375 1.265625-.953125 1.25-.984375 3.5v.96875q0 2.2812424.953125 3.5937424.96875 1.3125 2.65625 1.3125 1.6875 0 2.609375-1.234375.9375-1.234375.96875-3.5468674zm14.560547 7.0624924h-1.765625l-6.671875-10.218742v10.218742h-1.75v-13.265617h1.75l6.703125 10.265617v-10.265617h1.734375zm12.00428-11.828117h-4.2656174v11.828117h-1.734375v-11.828117h-4.25v-1.4375h10.249992v1.4375zm9.45993 5.703125h-5.75v4.6874924h6.6875v1.4375h-8.421875v-13.265617h8.328125v1.4375h-6.59375v4.265625h5.75v1.4375zm13.30658 6.1249924h-1.765625l-6.671875-10.218742v10.218742h-1.75v-13.265617h1.75l6.703125 10.265617v-10.265617h1.734375zm12.004288-11.828117h-4.265625v11.828117h-1.734375v-11.828117h-4.25v-1.4375h10.25z" fill="#fff"/><path d="m99.34016 149.02908v5.1875h-1.734375v-13.265625h4.890625q2.171875 0 3.40625 1.109375 1.234375 1.109375 1.234375 2.953125 0 1.921875-1.21875 2.96875-1.203125 1.046875-3.453125 1.046875zm0-1.4375h3.15625q1.390625 0 2.140625-.65625.75-.65625.75-1.90625 0-1.1875-.75-1.890625-.75-.71875-2.046875-.75h-3.25zm16.089783 3.15625h-5.546875l-1.25 3.46875h-1.8125l5.0625-13.265625h1.53125l5.078125 13.265625h-1.796875zm-5.03125-1.4375h4.515625l-2.265625-6.203125zm19.570015 3.171875q-.671875.953125-1.875 1.4375-1.2031174.484375-2.8124924.484375-1.625 0-2.890625-.765625-1.25-.765625-1.9375-2.15625-.6875-1.40625-.703125-3.265625v-1.15625q0-2.984375 1.390625-4.640625 1.40625-1.65625 3.9375-1.65625 2.078125 0 3.3437424 1.0625 1.265625 1.0625 1.546875 3.015625h-1.75q-.48436737-2.625-3.1249924-2.625-1.765625 0-2.671875 1.234375-.90625 1.234375-.90625 3.5625v1.09375q0 2.234375 1.015625 3.546875 1.015625 1.3125 2.765625 1.3125.984375 0 1.71875-.21875.734375-.21875 1.2187424-.734375v-2.984375h-3.0781174v-1.421875h4.8124924zm10.410873-4.390625h-5.75v4.6875h6.6875v1.4375h-8.421875v-13.265625h8.328125v1.4375h-6.59375v4.265625h5.75zm7.0253296.21875q-2.25-.65625-3.28125-1.59375-1.03125-.9375-1.03125-2.328125 0-1.5625 1.25-2.59375 1.265625-1.03125 3.265625-1.03125 1.359375 0 2.4375.53125 1.078125.53125 1.65625 1.46875.59375.921875.59375 2.03125h-1.765625q0-1.203125-.765625-1.890625-.765625-.6875-2.15625-.6875-1.296875 0-2.015625.5625-.71875.5625-.71875 1.578125 0 .8125.6875 1.375.6875.5625 2.328125 1.03125 1.65625.453125 2.59375 1.015625.9375.5625 1.375 1.3125.453125.75.453125 1.75 0 1.609375-1.25 2.59375-1.25.96875-3.359375.96875-1.375 0-2.5625-.515625-1.171875-.53125-1.8125-1.4375-.640625-.921875-.640625-2.078125h1.75q0 1.203125.890625 1.90625.890625.6875 2.375.6875 1.375 0 2.109375-.5625.75-.5625.75-1.53125 0-.984375-.6875-1.515625-.6875-.53125-2.46875-1.046875z" fill="#fff"/><path d="m222.1378 88.95801h129.88976v94.67717h-129.88976z" fill="#674ea7" fill-rule="evenodd"/><path d="m272.1039 128.02908.25 1.75.375-1.578125 2.625-9.249992h1.46875l2.5625 9.249992.359375 1.609375.28125-1.78125 2.0625-9.078117h1.765625l-3.21875 13.265617h-1.59375l-2.734375-9.671867-.203125-1-.21875 1-2.828125 9.671867h-1.59375l-3.203125-13.265617h1.75zm21.176971-1.9374924h-5.75v4.6874924h6.6875v1.4375h-8.421875v-13.265617h8.328125v1.4375h-6.59375v4.265625h5.75v1.4375zm3.1190796 6.1249924v-13.265617h4.328125q2.15625 0 3.25.890625 1.09375.890625 1.09375 2.640625 0 .9375-.53125 1.65625-.53125.703125-1.4375 1.09375 1.0625.3125 1.6875 1.15625.625.84375.625 1.9999924 0 1.78125-1.15625 2.8125-1.15625 1.015625-3.265625 1.015625h-4.59375zm1.734375-6.2031174v4.7656174h2.890625q1.21875 0 1.921875-.625.71875-.640625.71875-1.75 0-2.3906174-2.609375-2.3906174zm0-1.40625h2.65625q1.140625 0 1.828125-.5625.6875-.578125.6875-1.5625 0-1.09375-.640625-1.59375-.640625-.5-1.9375-.5h-2.59375z" fill="#fff"/><path d="m278.08743 150.74783h-5.546875l-1.25 3.46875h-1.8125l5.0625-13.265625h1.53125l5.078125 13.265625h-1.796875zm-5.03125-1.4375h4.515625l-2.265625-6.203125zm11.623413-.28125v5.1875h-1.734375v-13.265625h4.890625q2.171875 0 3.40625 1.109375 1.234375 1.109375 1.234375 2.953125 0 1.921875-1.21875 2.96875-1.203125 1.046875-3.453125 1.046875zm0-1.4375h3.15625q1.390625 0 2.140625-.65625.75-.65625.75-1.90625 0-1.1875-.75-1.890625-.75-.71875-2.046875-.75h-3.25zm11.76947 1.4375v5.1875h-1.734375v-13.265625h4.890625q2.171875 0 3.40625 1.109375 1.234375 1.109375 1.234375 2.953125 0 1.921875-1.21875 2.96875-1.203125 1.046875-3.453125 1.046875zm0-1.4375h3.15625q1.390625 0 2.140625-.65625.75-.65625.75-1.90625 0-1.1875-.75-1.890625-.75-.71875-2.046875-.75h-3.25z" fill="#fff"/><path d="m679.2913 88.95801h129.88977v94.67717h-129.88977z" fill="#900" fill-rule="evenodd"/><path d="m735.7837 128.01346q-.25 2.09375-1.5625 3.25-1.296875 1.140625-3.46875 1.140625-2.34375 0-3.765625-1.6875-1.421875-1.6875-1.421875-4.5156174v-1.265625q0-1.859375.65625-3.25.671875-1.40625 1.875-2.15625 1.21875-.765625 2.8125-.765625 2.109375 0 3.390625 1.1875 1.28125 1.171875 1.484375 3.265625h-1.765625q-.21875-1.578125-.984375-2.28125-.765625-.71875-2.125-.71875-1.671875 0-2.625 1.234375-.953125 1.234375-.953125 3.53125v1.28125q0 2.1562424.890625 3.4374924.90625 1.265625 2.53125 1.265625 1.453125 0 2.234375-.65625.78125-.65625 1.03125-2.296875zm4.6429443-9.062492 4.343811 10.828117 4.328125-10.828117h2.265625v13.265617h-1.75v-5.1718674l.171875-5.5625-4.359375 10.734367h-1.34375l-4.343811-10.718742.171875 5.546875v5.1718674h-1.734375v-13.265617zm17.944092 7.359375q-2.25-.65625-3.28125-1.59375-1.03125-.9375-1.03125-2.328125 0-1.5625 1.25-2.59375 1.265625-1.03125 3.265625-1.03125 1.359375 0 2.4375.53125 1.078125.53125 1.65625 1.46875.59375.921875.59375 2.03125h-1.765625q0-1.203125-.765625-1.890625-.765625-.6875-2.15625-.6875-1.296875 0-2.015625.5625-.71875.5625-.71875 1.578125 0 .8125.6875 1.375.6875.5625 2.328125 1.03125 1.65625.453125 2.59375 1.015625.9375.5625 1.375 1.3125.453125.75.453125 1.7499924 0 1.609375-1.25 2.59375-1.25.96875-3.359375.96875-1.375 0-2.5625-.515625-1.171875-.53125-1.8125-1.4375-.640625-.921875-.640625-2.078125h1.75q0 1.203125.890625 1.90625.890625.6875 2.375.6875 1.375 0 2.109375-.5625.75-.5625.75-1.53125 0-.9843674-.6875-1.5156174-.6875-.53125-2.46875-1.046875z" fill="#fff"/><path d="m723.5626 150.74783h-5.546875l-1.25 3.46875h-1.8125l5.0625-13.265625h1.53125l5.078125 13.265625h-1.796875zm-5.03125-1.4375h4.515625l-2.265625-6.203125zm9.889038 4.90625v-13.265625h3.734375q1.734375 0 3.0625.765625 1.328125.765625 2.046875 2.1875.734375 1.40625.734375 3.234375v.84375q0 1.875-.71875 3.296875-.71875 1.40625-2.0625 2.171875-1.34375.75-3.140625.765625zm1.734375-11.828125v10.390625h1.84375q2.03125 0 3.15625-1.25 1.125-1.25 1.125-3.578125v-.78125q0-2.25-1.0625-3.5-1.0625-1.265625-3.015625-1.28125zm12.749634-1.4375 4.343811 10.828125 4.328125-10.828125h2.265625v13.265625h-1.75v-5.171875l.171875-5.5625-4.359375 10.734375h-1.34375l-4.343811-10.71875.171875 5.546875v5.171875h-1.734375v-13.265625zm15.912842 13.265625h-1.75v-13.265625h1.75zm13.386475 0h-1.765625l-6.671875-10.21875v10.21875h-1.75v-13.265625h1.75l6.703125 10.265625v-10.265625h1.734375z" fill="#fff"/><path d="m522.53546 88.95801h129.88971v94.67717h-129.88971z" fill="#900" fill-rule="evenodd"/><path d="m566.8067 128.74783h-5.546875l-1.25 3.46875h-1.8125l5.0625-13.265617h1.53125l5.078125 13.265617h-1.796875zm-5.03125-1.4374924h4.515625l-2.265625-6.203125zm9.889038 4.9062424v-13.265617h3.734375q1.734375 0 3.0625.765625 1.328125.765625 2.046875 2.1875.734375 1.40625.734375 3.234375v.84375q0 1.875-.71875 3.2968674-.71875 1.40625-2.0625 2.171875-1.34375.75-3.140625.765625h-3.65625zm1.734375-11.828117v10.390617h1.84375q2.03125 0 3.15625-1.25 1.125-1.25 1.125-3.5781174v-.78125q0-2.25-1.0625-3.5-1.0625-1.265625-3.015625-1.28125h-2.046875zm12.749695-1.4375 4.34375 10.828117 4.328125-10.828117h2.265625v13.265617h-1.75v-5.1718674l.171875-5.5625-4.359375 10.734367h-1.34375l-4.34375-10.718742.171875 5.546875v5.1718674h-1.734375v-13.265617zm15.912781 13.265617h-1.75v-13.265617h1.75zm13.386475 0h-1.765625l-6.671875-10.218742v10.218742h-1.75v-13.265617h1.75l6.703125 10.265617v-10.265617h1.734375z" fill="#fff"/><path d="m578.48505 150.74783h-5.546875l-1.25 3.46875h-1.8125l5.0625-13.265625h1.53125l5.078125 13.265625h-1.796875zm-5.03125-1.4375h4.515625l-2.265625-6.203125zm11.623413-.28125v5.1875h-1.734375v-13.265625h4.890686q2.171875 0 3.40625 1.109375 1.234375 1.109375 1.234375 2.953125 0 1.921875-1.21875 2.96875-1.203125 1.046875-3.453125 1.046875zm0-1.4375h3.156311q1.390625 0 2.140625-.65625.75-.65625.75-1.90625 0-1.1875-.75-1.890625-.75-.71875-2.046875-.75h-3.250061zm11.769531 1.4375v5.1875h-1.734375v-13.265625h4.890625q2.171875 0 3.40625 1.109375 1.234375 1.109375 1.234375 2.953125 0 1.921875-1.21875 2.96875-1.203125 1.046875-3.453125 1.046875zm0-1.4375h3.15625q1.390625 0 2.140625-.65625.75-.65625.75-1.90625 0-1.1875-.75-1.890625-.75-.71875-2.046875-.75h-3.25z" fill="#fff"/><path d="m522.53546 54.619423c0-16.003212 12.973145-28.976377 28.97638-28.976377 16.003174 0 28.976318 12.9731655 28.976318 28.976377 0 16.003212-12.973145 28.97638-28.976318 28.97638-16.003235 0-28.97638-12.973167-28.97638-28.97638z" fill="#e6b8af" fill-rule="evenodd"/><path d="m539.21027 45.95334c0-1.6669998 1.3513794-3.0183716 3.0183716-3.0183716s3.0183716 1.3513718 3.0183716 3.0183716c0 1.6670036-1.3513794 3.0183716-3.0183716 3.0183716s-3.0183716-1.351368-3.0183716-3.0183716m18.566345 0c0-1.6669998 1.3513794-3.0183716 3.0183716-3.0183716s3.0183716 1.3513718 3.0183716 3.0183716c0 1.6670036-1.3513794 3.0183716-3.0183716 3.0183716s-3.0183716-1.351368-3.0183716-3.0183716" fill="#b7938b" fill-rule="evenodd"/><path d="m535.8064 67.25622q15.705444 10.786163 31.374146 0" fill="none"/><path d="m522.53546 54.619423c0-16.003212 12.973145-28.976377 28.97638-28.976377 16.003174 0 28.976318 12.9731655 28.976318 28.976377 0 16.003212-12.973145 28.97638-28.976318 28.97638-16.003235 0-28.97638-12.973167-28.97638-28.97638z" fill="none"/><path d="m539.21027 45.95334c0-1.6669998 1.3513794-3.0183716 3.0183716-3.0183716s3.0183716 1.3513718 3.0183716 3.0183716c0 1.6670036-1.3513794 3.0183716-3.0183716 3.0183716s-3.0183716-1.351368-3.0183716-3.0183716m18.566345 0c0-1.6669998 1.3513794-3.0183716 3.0183716-3.0183716s3.0183716 1.3513718 3.0183716 3.0183716c0 1.6670036-1.3513794 3.0183716-3.0183716 3.0183716s-3.0183716-1.351368-3.0183716-3.0183716" fill-rule="evenodd" stroke="#000" stroke-linecap="butt" stroke-linejoin="round"/><path d="m535.8064 67.25622q15.705444 10.786163 31.374146 0" fill-rule="evenodd" stroke="#000" stroke-linecap="butt" stroke-linejoin="round"/><path d="m522.53546 54.619423c0-16.003212 12.973145-28.976377 28.97638-28.976377 16.003174 0 28.976318 12.9731655 28.976318 28.976377 0 16.003212-12.973145 28.97638-28.976318 28.97638-16.003235 0-28.97638-12.973167-28.97638-28.97638z" fill-rule="evenodd" stroke="#000" stroke-linecap="butt" stroke-linejoin="round"/><path d="m594.9858 32.335957h191.05511v44.56693h-191.05511z" fill="none"/><path d="m621.22015 64.37596h-3.765625l-1.5-3.9062538h-6.875l-1.40625 3.9062538h-3.6875l6.6875-17.187504h3.671875zm-6.375-6.796879-2.375-6.375-2.3125 6.375zm8.207031-10.390625h6.34375q2.140625 0 3.265625.328125 1.515625.453125 2.59375 1.59375 1.078125 1.125 1.640625 2.78125.5625 1.640625.5625 4.0625 0 2.109375-.53125 3.65625-.640625 1.875-1.84375 3.03125-.890625.875-2.4375 1.3750038-1.140625.359375-3.0625.359375h-6.53125v-17.187504zm3.46875 2.90625v11.390625h2.59375q1.453125 0 2.09375-.171875.84375-.203125 1.390625-.703125.5625-.515625.90625-1.671875.359375-1.15625.359375-3.140625 0-2-.359375-3.0625-.34375-1.0625-.984375-1.65625-.625-.609375-1.59375-.8125-.71875-.171875-2.84375-.171875zm13.832031 14.281254v-17.187504h5.1875l3.125 11.71875 3.078125-11.71875h5.203125v17.187504h-3.21875v-13.531254l-3.421875 13.531254h-3.328125l-3.40625-13.531254v13.531254zm19.929688 0v-17.187504h3.46875v17.187504zm6.8085938 0v-17.187504h3.375l7.03125 11.484375v-11.484375h3.21875v17.187504h-3.46875l-6.9375-11.203129v11.203129zm23.9375-17.187504h3.46875v9.3125q0 2.21875.140625 2.875.21875 1.046875 1.046875 1.6875.84375.640625 2.296875.640625 1.484375 0 2.234375-.59375.75-.609375.890625-1.484375.15625-.890625.15625-2.921875v-9.515625h3.46875v9.03125q0 3.09375-.28125 4.375-.28125 1.265625-1.046875 2.15625-.75.875-2.015625 1.4062538-1.265625.515625-3.296875.515625-2.46875 0-3.734375-.5625-1.265625-.5781288-2.015625-1.4843788-.734375-.90625-.96875-1.90625-.34375-1.484375-.34375-4.359375zm16.488281 11.59375 3.375-.328125q.296875 1.703125 1.21875 2.5.9375.796875 2.53125.796875 1.671875 0 2.515625-.703125.859375-.71875.859375-1.671875 0-.609375-.359375-1.03125-.359375-.421875-1.25-.75-.609375-.203125-2.78125-.75-2.78125-.6875-3.90625-1.6875-1.59375-1.421875-1.59375-3.46875 0-1.3125.75-2.453125.75-1.140625 2.140625-1.734375 1.40625-.59375 3.390625-.59375 3.234375 0 4.859375 1.421875 1.640625 1.40625 1.71875 3.78125l-3.46875.140625q-.21875-1.3125-.953125-1.890625-.734375-.59375-2.203125-.59375-1.5 0-2.359375.625-.546875.40625-.546875 1.0625 0 .609375.515625 1.046875.65625.546875 3.1875 1.15625 2.53125.59375 3.734375 1.234375 1.21875.640625 1.90625 1.75.6875 1.09375.6875 2.734375 0 1.46875-.828125 2.765625-.8125 1.28125-2.3125 1.9218788-1.5.625-3.75.625-3.25 0-5-1.5000038-1.75-1.515625-2.078125-4.40625zm16.882812 5.593754v-17.187504h12.734375v2.90625h-9.265625v3.8125h8.625v2.890625h-8.625v4.6875h9.59375v2.8906288h-13.0625zm16.023438 0v-17.187504h7.296875q2.75 0 4 .46875 1.25.46875 2 1.65625.75 1.171875.75 2.703125 0 1.921875-1.140625 3.1875-1.140625 1.265625-3.390625 1.59375 1.125.65625 1.84375 1.4375.734375.78125 1.984375 2.78125l2.09375 3.3593788h-4.140625l-2.515625-3.7343788q-1.328125-2.015625-1.828125-2.53125-.484375-.515625-1.046875-.703125-.546875-.203125-1.734375-.203125h-.703125v7.171879zm3.46875-9.921879h2.5625q2.5 0 3.109375-.203125.625-.21875.96875-.734375.359375-.515625.359375-1.28125 0-.875-.46875-1.40625-.453125-.53125-1.296875-.671875-.421875-.0625-2.53125-.0625h-2.703125z" fill="#900"/><path d="m59.59449 568.0945h129.88977v94.677185h-129.88977z" fill="#38761d" fill-rule="evenodd"/><path d="m116.08685 607.14996q-.25 2.09375-1.5625 3.25-1.296875 1.140625-3.46875 1.140625-2.34375 0-3.765625-1.6875-1.421875-1.6875-1.421875-4.515625v-1.265625q0-1.859375.65625-3.25.671875-1.40625 1.875-2.15625 1.21875-.765625 2.8125-.765625 2.109375 0 3.390625 1.1875 1.28125 1.171875 1.484375 3.265625h-1.765625q-.21875-1.578125-.984375-2.28125-.765625-.71875-2.125-.71875-1.671875 0-2.625 1.234375-.953125 1.234375-.953125 3.53125v1.28125q0 2.15625.890625 3.4375.90625 1.265625 2.53125 1.265625 1.453125 0 2.234375-.65625.78125-.65625 1.03125-2.296875zm4.6429596-9.0625 4.3437576 10.828125 4.3281174-10.828125h2.265625v13.265625h-1.75v-5.171875l.171875-5.5625-4.3593674 10.734375h-1.34375l-4.3437576-10.71875.171875 5.546875v5.171875h-1.734375v-13.265625zm17.94403 7.359375q-2.25-.65625-3.28125-1.59375-1.03125-.9375-1.03125-2.328125 0-1.5625 1.25-2.59375 1.265625-1.03125 3.265625-1.03125 1.359375 0 2.4375.53125 1.078125.53125 1.65625 1.46875.59375.921875.59375 2.03125h-1.765625q0-1.203125-.765625-1.890625-.765625-.6875-2.15625-.6875-1.296875 0-2.015625.5625-.71875.5625-.71875 1.578125 0 .8125.6875 1.375.6875.5625 2.328125 1.03125 1.65625.453125 2.59375 1.015625.9375.5625 1.375 1.3125.453125.75.453125 1.75 0 1.609375-1.25 2.59375-1.25.96875-3.359375.96875-1.375 0-2.5625-.515625-1.171875-.53125-1.8125-1.4375-.640625-.921875-.640625-2.078125h1.75q0 1.203125.890625 1.90625.890625.6875 2.375.6875 1.375 0 2.109375-.5625.75-.5625.75-1.53125 0-.984375-.6875-1.515625-.6875-.53125-2.46875-1.046875z" fill="#fff"/><path d="m79.92853 627.96246q0-2.046875.546875-3.9375.546875-1.90625 1.640625-3.453125 1.09375-1.546875 2.265625-2.1875l.34375 1.109375q-1.328125 1.03125-2.1875 3.125-.84375 2.09375-.921875 4.6875l-.015625.765625q0 3.515625 1.296875 6.109375.765625 1.546875 1.828125 2.421875l-.34375 1.03125q-1.203125-.671875-2.3125-2.265625-2.140625-3.09375-2.140625-7.40625zm9.72821 1.203125.25 1.75.375-1.578125 2.625-9.25h1.46875l2.5625 9.25.359375 1.609375.28125-1.78125 2.0625-9.078125h1.765625l-3.21875 13.265625h-1.59375l-2.734375-9.671875-.203125-1-.21875 1-2.828125 9.671875h-1.59375l-3.203125-13.265625h1.75zm20.61316.71875h-5.546875l-1.25 3.46875h-1.8125l5.0625-13.265625h1.53125l5.078125 13.265625h-1.796875zm-5.03125-1.4375h4.515625l-2.265625-6.203125zm19.57003 3.171875q-.671875.953125-1.8750076 1.4375-1.203125.484375-2.8125.484375-1.625 0-2.890625-.765625-1.25-.765625-1.9375-2.15625-.6875-1.40625-.703125-3.265625v-1.15625q0-2.984375 1.390625-4.640625 1.40625-1.65625 3.9375-1.65625 2.078125 0 3.34375 1.0625 1.2656326 1.0625 1.5468826 3.015625h-1.7500076q-.484375-2.625-3.125-2.625-1.765625 0-2.671875 1.234375-.90625 1.234375-.90625 3.5625v1.09375q0 2.234375 1.015625 3.546875 1.015625 1.3125 2.765625 1.3125.984375 0 1.71875-.21875.734375-.21875 1.21875-.734375v-2.984375h-3.078125v-1.421875h4.8125076zm12.082741-10.09375h-4.265625v11.828125h-1.734375v-11.828125h-4.2499924v-1.4375h10.249992v1.4375zm8.568008 8.359375h-5.546875l-1.25 3.46875h-1.8125l5.0625-13.265625h1.53125l5.078125 13.265625h-1.796875zm-5.03125-1.4375h4.515625l-2.265625-6.203125zm11.764038 4.90625h-1.75v-13.265625h1.75zm4.94899-1.4375h6.28125v1.4375h-8.03125v-13.265625h1.75zm11.913666-3.859375q0 2.03125-.546875 3.90625-.53125 1.859375-1.625 3.421875-1.09375 1.578125-2.296875 2.25l-.359375-1.03125q1.40625-1.078125 2.25-3.328125.859375-2.265625.875-5.03125v-.296875q0-1.90625-.40625-3.546875-.390625-1.65625-1.109375-2.953125-.71875-1.296875-1.609375-2.03125l.359375-1.03125q1.203125.671875 2.28125 2.234375 1.09375 1.546875 1.640625 3.421875.546875 1.875.546875 4.015625z" fill="#fff"/><path d="m221.3189 568.0945h129.88976v94.677185h-129.88976z" fill="#38761d" fill-rule="evenodd"/><path d="m253.891 605.9937h-3.125v5.359375h-1.75v-13.265625h4.390625q2.234375 0 3.4374847 1.03125 1.21875 1.015625 1.21875 2.953125 0 1.25-.671875 2.171875-.671875.921875-1.8593597 1.375l3.1093597 5.625v.109375h-1.875zm-3.125-1.4375h2.6875q1.3125 0 2.078125-.671875.76560974-.671875.76560974-1.8125 0-1.21875-.73435974-1.875-.734375-.65625-2.109375-.671875h-2.6875zm17.237076.671875h-5.75v4.6875h6.6875v1.4375h-8.421875v-13.265625h8.328125v1.4375h-6.59375v4.265625h5.75zm7.0253296.21875q-2.25-.65625-3.28125-1.59375-1.03125-.9375-1.03125-2.328125 0-1.5625 1.25-2.59375 1.265625-1.03125 3.265625-1.03125 1.359375 0 2.4375.53125 1.078125.53125 1.65625 1.46875.59375.921875.59375 2.03125h-1.765625q0-1.203125-.765625-1.890625-.765625-.6875-2.15625-.6875-1.296875 0-2.015625.5625-.71875.5625-.71875 1.578125 0 .8125.6875 1.375.6875.5625 2.328125 1.03125 1.65625.453125 2.59375 1.015625.9375.5625 1.375 1.3125.453125.75.453125 1.75 0 1.609375-1.25 2.59375-1.25.96875-3.359375.96875-1.375 0-2.5625-.515625-1.171875-.53125-1.8125-1.4375-.640625-.921875-.640625-2.078125h1.75q0 1.203125.890625 1.90625.890625.6875 2.375.6875 1.375 0 2.109375-.5625.75-.5625.75-1.53125 0-.984375-.6875-1.515625-.6875-.53125-2.46875-1.046875zm16.318024-5.921875h-4.265625v11.828125h-1.734375v-11.828125h-4.25v-1.4375h10.25zm13.541992 8.359375h-5.546875l-1.25 3.46875h-1.8125l5.0625-13.265625h1.53125l5.078125 13.265625h-1.796875zm-5.03125-1.4375h4.515625l-2.265625-6.203125zm11.623413-.28125v5.1875h-1.734375v-13.265625h4.890625q2.171875 0 3.40625 1.109375 1.234375 1.109375 1.234375 2.953125 0 1.921875-1.21875 2.96875-1.203125 1.046875-3.453125 1.046875zm0-1.4375h3.15625q1.390625 0 2.140625-.65625.75-.65625.75-1.90625 0-1.1875-.75-1.890625-.75-.71875-2.046875-.75h-3.25zm11.910095 6.625h-1.75v-13.265625h1.75z" fill="#fff"/><path d="m244.38556 627.96246q0-2.046875.546875-3.9375.546875-1.90625 1.640625-3.453125 1.09375-1.546875 2.265625-2.1875l.34375 1.109375q-1.328125 1.03125-2.1875 3.125-.84375 2.09375-.921875 4.6875l-.015625.765625q0 3.515625 1.296875 6.109375.765625 1.546875 1.828125 2.421875l-.34375 1.03125q-1.203125-.671875-2.3125-2.265625-2.140625-3.09375-2.140625-7.40625zm6.704773 5.390625v-13.265625h3.734375q1.734375 0 3.0625.765625 1.328125.765625 2.046875 2.1875.734375 1.40625.734375 3.234375v.84375q0 1.875-.71875 3.296875-.71875 1.40625-2.0625 2.171875-1.34375.75-3.140625.765625zm1.734375-11.828125v10.390625h1.84375q2.03125 0 3.15625-1.25 1.125-1.25 1.125-3.578125v-.78125q0-2.25-1.0625-3.5-1.0625-1.265625-3.015625-1.28125zm16.04654-1.4375h1.765625v9.390625q0 1.90625-1.15625 2.984375-1.140625 1.078125-3.03125 1.078125-1.984375 0-3.09375-1.015625-1.09375-1.015625-1.09375-2.828125h1.75q0 1.140625.625 1.78125.625.625 1.8125.625 1.078125 0 1.75-.671875.671875-.6875.671875-1.921875zm11.858856 9.796875h-5.546875l-1.25 3.46875h-1.8125l5.0625-13.265625h1.53125l5.078125 13.265625h-1.796875zm-5.03125-1.4375h4.515625l-2.265625-6.203125zm20.076538 4.90625h-1.765625l-6.671875-10.21875v10.21875h-1.75v-13.265625h1.75l6.703125 10.265625v-10.265625h1.734375zm12.893616-1.734375q-.671875.953125-1.875 1.4375-1.203125.484375-2.8125.484375-1.625 0-2.890625-.765625-1.25-.765625-1.9375-2.15625-.6875-1.40625-.703125-3.265625v-1.15625q0-2.984375 1.390625-4.640625 1.40625-1.65625 3.9375-1.65625 2.078125 0 3.34375 1.0625 1.265625 1.0625 1.546875 3.015625h-1.75q-.484375-2.625-3.125-2.625-1.765625 0-2.671875 1.234375-.90625 1.234375-.90625 3.5625v1.09375q0 2.234375 1.015625 3.546875 1.015625 1.3125 2.765625 1.3125.984375 0 1.71875-.21875.734375-.21875 1.21875-.734375v-2.984375h-3.078125v-1.421875h4.8125zm13.113983-4.46875q0 1.953125-.65625 3.40625-.640625 1.453125-1.84375 2.21875-1.203125.765625-2.8125.765625-1.5625 0-2.78125-.765625-1.203125-.78125-1.875-2.203125-.671875-1.421875-.6875-3.296875v-.96875q0-1.90625.65625-3.375.671875-1.46875 1.890625-2.25 1.21875-.78125 2.78125-.78125 1.59375 0 2.8125.78125 1.21875.765625 1.859375 2.234375.65625 1.453125.65625 3.390625zm-1.734375-.859375q0-2.359375-.953125-3.609375-.9375-1.265625-2.640625-1.265625-1.65625 0-2.609375 1.265625-.953125 1.25-.984375 3.5v.96875q0 2.28125.953125 3.59375.96875 1.3125 2.65625 1.3125 1.6875 0 2.609375-1.234375.9375-1.234375.96875-3.546875zm7.998047 1.765625q0 2.03125-.546875 3.90625-.53125 1.859375-1.625 3.421875-1.09375 1.578125-2.296875 2.25l-.359375-1.03125q1.40625-1.078125 2.25-3.328125.859375-2.265625.875-5.03125v-.296875q0-1.90625-.40625-3.546875-.390625-1.65625-1.109375-2.953125-.71875-1.296875-1.609375-2.03125l.359375-1.03125q1.203125.671875 2.28125 2.234375 1.09375 1.546875 1.640625 3.421875.546875 1.875.546875 4.015625z" fill="#fff"/><path d="m44.90551 671.1732h369.5118v44.566956h-369.5118z" fill="none"/><path d="m54.78051 697.6195 3.375-.328125q.296875 1.703125 1.21875 2.5.9375.796875 2.53125.796875 1.671875 0 2.515625-.703125.859375-.71875.859375-1.671875 0-.609375-.359375-1.03125-.359375-.421875-1.25-.75-.609375-.203125-2.78125-.75-2.78125-.6875-3.90625-1.6875-1.59375-1.421875-1.59375-3.46875 0-1.3125.75-2.453125.75-1.140625 2.140625-1.734375 1.40625-.59375 3.390625-.59375 3.234375 0 4.859375 1.421875 1.640625 1.40625 1.71875 3.78125l-3.46875.140625q-.21875-1.3125-.953125-1.890625-.734375-.59375-2.203125-.59375-1.5 0-2.359375.625-.546875.40625-.546875 1.0625 0 .609375.515625 1.046875.65625.546875 3.1875 1.15625 2.53125.59375 3.734375 1.234375 1.21875.640625 1.90625 1.75.6875 1.09375.6875 2.734375 0 1.46875-.828125 2.765625-.8125 1.28125-2.3125 1.921875-1.5.625-3.75.625-3.25 0-5-1.5-1.75-1.515625-2.078125-4.40625zm16.882812 5.59375v-17.1875h12.734375v2.90625h-9.265625v3.8125h8.625v2.890625h-8.625v4.6875h9.59375v2.890625zm16.023438 0v-17.1875h7.296875q2.75 0 4 .46875 1.25.46875 2 1.65625.75 1.171875.75 2.703125 0 1.921875-1.140625 3.1875-1.140625 1.265625-3.390625 1.59375 1.125.65625 1.84375 1.4375.734375.78125 1.984375 2.78125l2.09375 3.359375h-4.140625l-2.515625-3.734375q-1.328125-2.015625-1.828125-2.53125-.484375-.515625-1.046875-.703125-.546875-.203125-1.734375-.203125h-.703125v7.171875zm3.46875-9.921875h2.5625q2.5 0 3.109375-.203125.625-.21875.96875-.734375.359375-.515625.359375-1.28125 0-.875-.46875-1.40625-.453125-.53125-1.296875-.671875-.421875-.0625-2.53125-.0625h-2.703125zm17.789062 9.921875-6.140625-17.1875h3.765625l4.34375 12.71875 4.21875-12.71875h3.671875l-6.15625 17.1875zm11.6328125 0v-17.1875h12.734383v2.90625h-9.265633v3.8125h8.625008v2.890625h-8.625008v4.6875h9.593758v2.890625zm16.023445 0v-17.1875h7.296875q2.75 0 4 .46875 1.25.46875 2 1.65625.75 1.171875.75 2.703125 0 1.921875-1.140625 3.1875-1.140625 1.265625-3.390625 1.59375 1.125.65625 1.84375 1.4375.734375.78125 1.984375 2.78125l2.09375 3.359375h-4.140625l-2.515625-3.734375q-1.328125-2.015625-1.828125-2.53125-.484375-.515625-1.046875-.703125-.546875-.203125-1.734375-.203125h-.703125v7.171875zm3.46875-9.921875h2.5625q2.5 0 3.109375-.203125.625-.21875.96875-.734375.359375-.515625.359375-1.28125 0-.875-.46875-1.40625-.453125-.53125-1.296875-.671875-.421875-.0625-2.53125-.0625h-2.703125zm13.457031 5.34375v-3.296875h6.46875v3.296875zm7.5078125-1.015625 3.375-.328125q.296875 1.703125 1.21875 2.5.9375.796875 2.53125.796875 1.671875 0 2.515625-.703125.859375-.71875.859375-1.671875 0-.609375-.359375-1.03125-.359375-.421875-1.25-.75-.609375-.203125-2.78125-.75-2.78125-.6875-3.90625-1.6875-1.59375-1.421875-1.59375-3.46875 0-1.3125.75-2.453125.75-1.140625 2.140625-1.734375 1.40625-.59375 3.390625-.59375 3.234375 0 4.859375 1.421875 1.640625 1.40625 1.71875 3.78125l-3.46875.140625q-.21875-1.3125-.953125-1.890625-.734375-.59375-2.203125-.59375-1.5 0-2.359375.625-.546875.40625-.546875 1.0625 0 .609375.515625 1.046875.65625.546875 3.1875 1.15625 2.53125.59375 3.734375 1.234375 1.21875.640625 1.90625 1.75.6875 1.09375.6875 2.734375 0 1.46875-.828125 2.765625-.8125 1.28125-2.3125 1.921875-1.5.625-3.75.625-3.25 0-5-1.5-1.75-1.515625-2.078125-4.40625zm16.773438 5.59375v-17.1875h3.46875v17.1875zm6.7617188-17.1875h6.34375q2.140625 0 3.265625.328125 1.515625.453125 2.59375 1.59375 1.078125 1.125 1.640625 2.78125.5625 1.640625.5625 4.0625 0 2.109375-.53125 3.65625-.640625 1.875-1.84375 3.03125-.890625.875-2.4375 1.375-1.140625.359375-3.0625.359375h-6.53125zm3.46875 2.90625v11.390625h2.59375q1.453125 0 2.09375-.171875.84375-.203125 1.390625-.703125.5625-.515625.90625-1.671875.359375-1.15625.359375-3.140625 0-2-.359375-3.0625-.34375-1.0625-.984375-1.65625-.625-.609375-1.59375-.8125-.71875-.171875-2.84375-.171875zm13.878906 14.28125v-17.1875h12.734375v2.90625h-9.265625v3.8125h8.625v2.890625h-8.625v4.6875h9.59375v2.890625zm33.660156-6.3125 3.375 1.0625q-.78125 2.8125-2.578125 4.1875-1.796875 1.359375-4.5625 1.359375-3.421875 0-5.625-2.34375-2.203125-2.34375-2.203125-6.390625 0-4.296875 2.203125-6.65625 2.21875-2.375 5.828125-2.375 3.15625 0 5.125 1.859375 1.171875 1.09375 1.765625 3.15625l-3.4375.828125q-.3125-1.34375-1.28125-2.109375-.953125-.78125-2.34375-.78125-1.90625 0-3.09375 1.375-1.1875 1.375-1.1875 4.4375 0 3.265625 1.171875 4.65625 1.171875 1.375 3.046875 1.375 1.375 0 2.375-.875 1-.890625 1.421875-2.765625zm5.6445312-2.171875q0-2.625.78125-4.40625.59375-1.3125 1.59375-2.359375 1.015625-1.046875 2.234375-1.546875 1.59375-.671875 3.703125-.671875 3.796875 0 6.0625 2.359375 2.28125 2.34375 2.28125 6.546875 0 4.15625-2.265625 6.515625-2.25 2.34375-6.03125 2.34375-3.84375 0-6.109375-2.34375-2.25-2.34375-2.25-6.4375zm3.578125-.125q0 2.921875 1.34375 4.4375 1.34375 1.5 3.421875 1.5 2.078125 0 3.40625-1.484375 1.328125-1.5 1.328125-4.5 0-2.953125-1.296875-4.40625-1.296875-1.453125-3.4375-1.453125-2.140625 0-3.453125 1.484375-1.3125 1.46875-1.3125 4.421875zm15.746094 8.609375v-17.1875h5.1875l3.125 11.71875 3.078125-11.71875h5.203125v17.1875h-3.21875v-13.53125l-3.421875 13.53125h-3.328125l-3.40625-13.53125v13.53125zm20.039062 0v-17.1875h5.5625q3.171875 0 4.125.265625 1.484375.390625 2.46875 1.6875 1 1.28125 1 3.34375 0 1.578125-.578125 2.65625-.5625 1.078125-1.453125 1.703125-.890625.609375-1.796875.796875-1.25.25-3.59375.25h-2.265625v6.484375zm3.46875-14.28125v4.875h1.890625q2.0625 0 2.75-.265625.6875-.265625 1.078125-.84375.390625-.578125.390625-1.328125 0-.9375-.546875-1.546875-.546875-.609375-1.390625-.765625-.625-.125-2.5-.125zm11.8359375 5.796875q0-2.625.78125-4.40625.59375-1.3125 1.59375-2.359375 1.015625-1.046875 2.234375-1.546875 1.59375-.671875 3.703125-.671875 3.796875 0 6.0625 2.359375 2.28125 2.34375 2.28125 6.546875 0 4.15625-2.265625 6.515625-2.25 2.34375-6.03125 2.34375-3.84375 0-6.109375-2.34375-2.25-2.34375-2.25-6.4375zm3.578125-.125q0 2.921875 1.34375 4.4375 1.34375 1.5 3.421875 1.5 2.078125 0 3.40625-1.484375 1.328125-1.5 1.328125-4.5 0-2.953125-1.296875-4.40625-1.296875-1.453125-3.4375-1.453125-2.140625 0-3.453125 1.484375-1.3125 1.46875-1.3125 4.421875zm15.824219 8.609375v-17.1875h3.375l7.03125 11.484375v-11.484375h3.21875v17.1875h-3.46875l-6.9375-11.203125v11.203125zm17.300781 0v-17.1875h12.734375v2.90625h-9.265625v3.8125h8.625v2.890625h-8.625v4.6875h9.59375v2.890625zm16.039062 0v-17.1875h3.375l7.03125 11.484375v-11.484375h3.21875v17.1875h-3.46875l-6.9375-11.203125v11.203125zm21.160156 0v-14.28125h-5.09375v-2.90625h13.65625v2.90625h-5.09375v14.28125zm9.925781-5.59375 3.375-.328125q.296875 1.703125 1.21875 2.5.9375.796875 2.53125.796875 1.671875 0 2.515625-.703125.859375-.71875.859375-1.671875 0-.609375-.359375-1.03125-.359375-.421875-1.25-.75-.609375-.203125-2.78125-.75-2.78125-.6875-3.90625-1.6875-1.59375-1.421875-1.59375-3.46875 0-1.3125.75-2.453125.75-1.140625 2.140625-1.734375 1.40625-.59375 3.390625-.59375 3.234375 0 4.859375 1.421875 1.640625 1.40625 1.71875 3.78125l-3.46875.140625q-.21875-1.3125-.953125-1.890625-.734375-.59375-2.203125-.59375-1.5 0-2.359375.625-.546875.40625-.546875 1.0625 0 .609375.515625 1.046875.65625.546875 3.1875 1.15625 2.53125.59375 3.734375 1.234375 1.21875.640625 1.90625 1.75.6875 1.09375.6875 2.734375 0 1.46875-.828125 2.765625-.8125 1.28125-2.3125 1.921875-1.5.625-3.75.625-3.25 0-5-1.5-1.75-1.515625-2.078125-4.40625z" fill="#38761d"/><path d="m537.2244 568.0945h129.88977v94.677185h-129.88977z" fill="#15c" fill-rule="evenodd"/><path d="m582.45575 610.52496h-4.265625v11.828125h-1.734375v-11.828125h-4.25v-1.4375h10.25zm4.9716797 7.640625.25 1.75.375-1.578125 2.625-9.25h1.46875l2.5625 9.25.359375 1.609375.28125-1.78125 2.0625-9.078125h1.765625l-3.21875 13.265625h-1.59375l-2.734375-9.671875-.203125-1-.21875 1-2.828125 9.671875h-1.59375l-3.203125-13.265625h1.75zm15.567566 4.1875h-1.75v-13.265625h1.75zm4.9489746-1.4375h6.28125v1.4375h-8.03125v-13.265625h1.75zm10.163696 1.4375h-1.75v-13.265625h1.75zm13.386475-6.203125q0 1.953125-.65625 3.40625-.640625 1.453125-1.84375 2.21875-1.203125.765625-2.8125.765625-1.5625 0-2.78125-.765625-1.203125-.78125-1.875-2.203125-.671875-1.421875-.6875-3.296875v-.96875q0-1.90625.65625-3.375.671875-1.46875 1.890625-2.25 1.21875-.78125 2.78125-.78125 1.59375 0 2.8125.78125 1.21875.765625 1.859375 2.234375.65625 1.453125.65625 3.390625zm-1.734375-.859375q0-2.359375-.953125-3.609375-.9375-1.265625-2.640625-1.265625-1.65625 0-2.609375 1.265625-.953125 1.25-.984375 3.5v.96875q0 2.28125.953125 3.59375.96875 1.3125 2.65625 1.3125 1.6875 0 2.609375-1.234375.9375-1.234375.96875-3.546875z" fill="#fff"/><path d="m698.9488 568.0945h129.88977v94.677185h-129.88977z" fill="#15c" fill-rule="evenodd"/><path d="m739.2293 610.52496h-4.265625v11.828125h-1.734375v-11.828125h-4.25v-1.4375h10.25zm3.850525 11.828125h-1.75v-13.265625h1.75zm5.4489746-13.265625 4.34375 10.828125 4.328125-10.828125h2.265625v13.265625h-1.75v-5.171875l.171875-5.5625-4.359375 10.734375h-1.34375l-4.34375-10.71875.171875 5.546875v5.171875h-1.734375v-13.265625zm21.522156 7.140625h-5.75v4.6875h6.6875v1.4375h-8.421875v-13.265625h8.328125v1.4375h-6.59375v4.265625h5.75zm6.4784546-.046875-1.625 1.6875v4.484375h-1.734375v-13.265625h1.734375v6.5625l5.90625-6.5625h2.109375l-5.21875 5.859375 5.625 7.40625h-2.09375zm10.212219 6.171875h-1.75v-13.265625h1.75zm12.090942-11.828125h-4.265625v11.828125h-1.734375v-11.828125h-4.25v-1.4375h10.25z" fill="#fff"/><path d="m522.53546 671.1732h369.51178v44.566956h-369.51178z" fill="none"/><path d="m537.14484 703.21326v-14.28125h-5.09375v-2.90625h13.65625v2.90625h-5.09375v14.28125zm10.816406 0v-17.1875h3.46875v6.765625h6.796875v-6.765625h3.46875v17.1875h-3.46875v-7.515625h-6.796875v7.515625zm17.207031 0v-17.1875h3.46875v17.1875zm6.7929688 0v-17.1875h7.296875q2.75 0 4 .46875 1.25.46875 2 1.65625.75 1.171875.75 2.703125 0 1.921875-1.140625 3.1875-1.140625 1.265625-3.390625 1.59375 1.125.65625 1.84375 1.4375.734375.78125 1.984375 2.78125l2.09375 3.359375h-4.140625l-2.515625-3.734375q-1.328125-2.015625-1.828125-2.53125-.484375-.515625-1.046875-.703125-.546875-.203125-1.734375-.203125h-.703125v7.171875zm3.46875-9.921875h2.5625q2.5 0 3.109375-.203125.625-.21875.96875-.734375.359375-.515625.359375-1.28125 0-.875-.46875-1.40625-.453125-.53125-1.296875-.671875-.421875-.0625-2.53125-.0625h-2.703125zm13.832031-7.265625h6.34375q2.140625 0 3.265625.328125 1.515625.453125 2.59375 1.59375 1.078125 1.125 1.640625 2.78125.5625 1.640625.5625 4.0625 0 2.109375-.53125 3.65625-.640625 1.875-1.84375 3.03125-.890625.875-2.4375 1.375-1.140625.359375-3.0625.359375h-6.53125zm3.46875 2.90625v11.390625h2.59375q1.453125 0 2.09375-.171875.84375-.203125 1.390625-.703125.5625-.515625.90625-1.671875.359375-1.15625.359375-3.140625 0-2-.359375-3.0625-.34375-1.0625-.984375-1.65625-.625-.609375-1.59375-.8125-.71875-.171875-2.84375-.171875zm13.488281 9.703125v-3.296875h6.46875v3.296875zm8.3828125 4.578125v-17.1875h5.5625q3.171875 0 4.125.265625 1.484375.390625 2.46875 1.6875 1 1.28125 1 3.34375 0 1.578125-.578125 2.65625-.5625 1.078125-1.453125 1.703125-.890625.609375-1.796875.796875-1.25.25-3.59375.25h-2.265625v6.484375zm3.46875-14.28125v4.875h1.890625q2.0625 0 2.75-.265625.6875-.265625 1.078125-.84375.390625-.578125.390625-1.328125 0-.9375-.546875-1.546875-.546875-.609375-1.390625-.765625-.625-.125-2.5-.125zm26.242188 14.28125h-3.765625l-1.5-3.90625h-6.875l-1.40625 3.90625h-3.6875l6.6875-17.1875h3.671875zm-6.375-6.796875-2.375-6.375-2.3125 6.375zm8.238281 6.796875v-17.1875h7.296875q2.75 0 4 .46875 1.25.46875 2 1.65625.75 1.171875.75 2.703125 0 1.921875-1.140625 3.1875-1.140625 1.265625-3.390625 1.59375 1.125.65625 1.84375 1.4375.734375.78125 1.984375 2.78125l2.09375 3.359375h-4.140625l-2.515625-3.734375q-1.328125-2.015625-1.828125-2.53125-.484375-.515625-1.046875-.703125-.546875-.203125-1.734375-.203125h-.703125v7.171875zm3.46875-9.921875h2.5625q2.5 0 3.109375-.203125.625-.21875.96875-.734375.359375-.515625.359375-1.28125 0-.875-.46875-1.40625-.453125-.53125-1.296875-.671875-.421875-.0625-2.53125-.0625h-2.703125zm17.707031 9.921875v-14.28125h-5.09375v-2.90625h13.65625v2.90625h-5.09375v14.28125zm15.316406 0v-7.234375l-6.296875-9.953125h4.0625l4.046875 6.796875 3.953125-6.796875h4l-6.3125 9.984375v7.203125zm16.851562-5.59375 3.375-.328125q.296875 1.703125 1.21875 2.5.9375.796875 2.53125.796875 1.671875 0 2.515625-.703125.859375-.71875.859375-1.671875 0-.609375-.359375-1.03125-.359375-.421875-1.25-.75-.609375-.203125-2.78125-.75-2.78125-.6875-3.90625-1.6875-1.59375-1.421875-1.59375-3.46875 0-1.3125.75-2.453125.75-1.140625 2.140625-1.734375 1.40625-.59375 3.390625-.59375 3.234375 0 4.859375 1.421875 1.640625 1.40625 1.71875 3.78125l-3.46875.140625q-.21875-1.3125-.953125-1.890625-.734375-.59375-2.203125-.59375-1.5 0-2.359375.625-.546875.40625-.546875 1.0625 0 .609375.515625 1.046875.65625.546875 3.1875 1.15625 2.53125.59375 3.734375 1.234375 1.21875.640625 1.90625 1.75.6875 1.09375.6875 2.734375 0 1.46875-.828125 2.765625-.8125 1.28125-2.3125 1.921875-1.5.625-3.75.625-3.25 0-5-1.5-1.75-1.515625-2.078125-4.40625zm16.882812 5.59375v-17.1875h12.734375v2.90625h-9.265625v3.8125h8.625v2.890625h-8.625v4.6875h9.59375v2.890625zm16.023438 0v-17.1875h7.296875q2.75 0 4 .46875 1.25.46875 2 1.65625.75 1.171875.75 2.703125 0 1.921875-1.140625 3.1875-1.140625 1.265625-3.390625 1.59375 1.125.65625 1.84375 1.4375.734375.78125 1.984375 2.78125l2.09375 3.359375h-4.140625l-2.515625-3.734375q-1.328125-2.015625-1.828125-2.53125-.484375-.515625-1.046875-.703125-.546875-.203125-1.734375-.203125h-.703125v7.171875zm3.46875-9.921875h2.5625q2.5 0 3.109375-.203125.625-.21875.96875-.734375.359375-.515625.359375-1.28125 0-.875-.46875-1.40625-.453125-.53125-1.296875-.671875-.421875-.0625-2.53125-.0625h-2.703125zm17.789062 9.921875-6.140625-17.1875h3.765625l4.34375 12.71875 4.21875-12.71875h3.671875l-6.15625 17.1875zm11.5234375 0v-17.1875h3.46875v17.1875zm17.761719-6.3125 3.375 1.0625q-.78125 2.8125-2.578125 4.1875-1.796875 1.359375-4.5625 1.359375-3.421875 0-5.625-2.34375-2.203125-2.34375-2.203125-6.390625 0-4.296875 2.203125-6.65625 2.21875-2.375 5.828125-2.375 3.15625 0 5.125 1.859375 1.171875 1.09375 1.765625 3.15625l-3.4375.828125q-.3125-1.34375-1.28125-2.109375-.953125-.78125-2.34375-.78125-1.90625 0-3.09375 1.375-1.1875 1.375-1.1875 4.4375 0 3.265625 1.171875 4.65625 1.171875 1.375 3.046875 1.375 1.375 0 2.375-.875 1-.890625 1.421875-2.765625zm6.3476562 6.3125v-17.1875h12.734375v2.90625h-9.265625v3.8125h8.625v2.890625h-8.625v4.6875h9.59375v2.890625zm15.1328125-5.59375 3.375-.328125q.296875 1.703125 1.21875 2.5.9375.796875 2.53125.796875 1.671875 0 2.515625-.703125.859375-.71875.859375-1.671875 0-.609375-.359375-1.03125-.359375-.421875-1.25-.75-.609375-.203125-2.78125-.75-2.78125-.6875-3.90625-1.6875-1.59375-1.421875-1.59375-3.46875 0-1.3125.75-2.453125.75-1.140625 2.140625-1.734375 1.40625-.59375 3.390625-.59375 3.234375 0 4.859375 1.421875 1.640625 1.40625 1.71875 3.78125l-3.46875.140625q-.21875-1.3125-.953125-1.890625-.734375-.59375-2.203125-.59375-1.5 0-2.359375.625-.546875.40625-.546875 1.0625 0 .609375.515625 1.046875.65625.546875 3.1875 1.15625 2.53125.59375 3.734375 1.234375 1.21875.640625 1.90625 1.75.6875 1.09375.6875 2.734375 0 1.46875-.828125 2.765625-.8125 1.28125-2.3125 1.921875-1.5.625-3.75.625-3.25 0-5-1.5-1.75-1.515625-2.078125-4.40625z" fill="#15c"/><path d="m489.82806 273.04987h168.37793v94.677155h-168.37793z" fill="#ffd966" fill-rule="evenodd"/><path d="m511.16202 303.04282v8.734375q0 2.1875-1.359375 3.453125-1.359375 1.265625-3.71875 1.265625-2.328125 0-3.703125-1.234375-1.359375-1.234375-1.375-3.375v-8.84375h2.734375v8.75q0 1.3125.609375 1.90625.625.59375 1.734375.59375 2.296875 0 2.34375-2.421875v-8.828125zm5.1546326 13.265625h-2.734375v-13.265625h2.734375zm17.584167-4.421875q-.15625 2.140625-1.578125 3.375-1.421875 1.234375-3.75 1.234375-2.5625 0-4.03125-1.71875-1.453125-1.71875-1.453125-4.71875v-.8125q0-1.90625.671875-3.359375.671875-1.46875 1.921875-2.25 1.265625-.78125 2.921875-.78125 2.296875 0 3.6875 1.234375 1.40625 1.234375 1.625 3.453125h-2.734375q-.09375-1.28125-.71875-1.859375-.609375-.578125-1.859375-.578125-1.375 0-2.046875.984375-.671875.96875-.703125 3.03125v1q0 2.15625.65625 3.15625.65625.984375 2.0625.984375 1.265625 0 1.875-.578125.625-.578125.71875-1.796875zm12.691101-1.90625q0 1.953125-.703125 3.4375-.6875 1.46875-1.984375 2.28125-1.28125.796875-2.9375.796875-1.65625 0-2.953125-.796875-1.28125-.796875-2-2.265625-.703125-1.46875-.71875-3.390625v-.65625q0-1.953125.703125-3.4375.71875-1.484375 2-2.28125 1.28125-.8125 2.9375-.8125 1.671875 0 2.953125.8125 1.296875.796875 2 2.28125.703125 1.484375.703125 3.4375zm-2.765625-.609375q0-2.078125-.75-3.15625-.75-1.09375-2.125-1.09375-1.375 0-2.125 1.078125-.75 1.0625-.765625 3.125v.65625q0 2.03125.75 3.15625.75 1.109375 2.15625 1.109375 1.375 0 2.109375-1.078125.734375-1.078125.75-3.140625zm8.318359-6.328125 3.40625 9.625 3.390625-9.625h3.59375v13.265625h-2.75v-3.625l.28125-6.265625-3.578125 9.890625h-1.875l-3.578125-9.875.28125 6.25v3.625h-2.734375v-13.265625zm15.514282 8.59375v4.671875h-2.734375v-13.265625h5.171875q1.5 0 2.625.546875 1.140625.546875 1.75 1.5625.609375 1 .609375 2.28125 0 1.953125-1.34375 3.078125-1.328125 1.125-3.6875 1.125zm0-2.21875h2.4375q1.078125 0 1.640625-.5.578125-.515625.578125-1.46875 0-.96875-.578125-1.5625-.5625-.609375-1.578125-.625h-2.5zm20.189941.5625q0 1.953125-.703125 3.4375-.6875 1.46875-1.984375 2.28125-1.28125.796875-2.9375.796875-1.65625 0-2.953125-.796875-1.28125-.796875-2-2.265625-.703125-1.46875-.71875-3.390625v-.65625q0-1.953125.703125-3.4375.71875-1.484375 2-2.28125 1.28125-.8125 2.9375-.8125 1.671875 0 2.953125.8125 1.296875.796875 2 2.28125.703125 1.484375.703125 3.4375zm-2.765625-.609375q0-2.078125-.75-3.15625-.75-1.09375-2.125-1.09375-1.375 0-2.125 1.078125-.75 1.0625-.765625 3.125v.65625q0 2.03125.75 3.15625.75 1.109375 2.15625 1.109375 1.375 0 2.109375-1.078125.734375-1.078125.75-3.140625zm15.537048 6.9375h-2.734375l-5.3125-8.734375v8.734375h-2.734375v-13.265625h2.734375l5.328125 8.75v-8.75h2.71875zm10.375488-5.75h-5.25v3.546875h6.15625v2.203125h-8.890625v-13.265625h8.875v2.21875h-6.140625v3.15625h5.25zm13.291016 5.75h-2.734375l-5.3125-8.734375v8.734375h-2.734375v-13.265625h2.734375l5.328125 8.75v-8.75h2.71875zm12.111084-11.046875h-4.0625v11.046875h-2.734375v-11.046875h-4.015625v-2.21875h10.8125zm8.28656 7.5625q0-.765625-.546875-1.171875-.546875-.421875-1.96875-.875-1.421875-.46875-2.25-.921875-2.265625-1.21875-2.265625-3.28125 0-1.078125.609375-1.921875.609375-.84375 1.734375-1.3125 1.140625-.484375 2.5625-.484375 1.40625 0 2.515625.515625 1.125.515625 1.734375 1.453125.609375.9375.609375 2.140625h-2.71875q0-.90625-.578125-1.40625-.578125-.515625-1.609375-.515625-1.015625 0-1.578125.421875-.546875.421875-.546875 1.109375 0 .65625.65625 1.09375.65625.4375 1.921875.8125 2.328125.703125 3.390625 1.75 1.0625 1.03125 1.0625 2.578125 0 1.71875-1.296875 2.703125-1.296875.984375-3.5.984375-1.53125 0-2.796875-.5625-1.25-.5625-1.921875-1.53125-.65625-.984375-.65625-2.265625h2.75q0 2.1875 2.625 2.1875.96875 0 1.515625-.390625.546875-.390625.546875-1.109375z" fill="#000"/><path d="m539.4557 332.91782q0-2.09375.546875-3.96875.5625-1.890625 1.640625-3.34375 1.09375-1.453125 2.359375-2.015625l.515625 1.421875q-1.328125.984375-2.078125 3.046875-.75 2.046875-.75 4.796875v.28125q0 2.765625.734375 4.84375.75 2.0625 2.09375 3.078125l-.515625 1.390625q-1.234375-.546875-2.3125-1.953125-1.0625-1.40625-1.625-3.25-.5625-1.84375-.609375-3.84375zm11.518494.53125h-2.171875v4.859375h-2.734375v-13.265625h4.921875q2.359375 0 3.625 1.046875 1.28125 1.046875 1.28125 2.96875 0 1.359375-.59375 2.265625-.578125.90625-1.78125 1.4375l2.875 5.421875v.125h-2.9375zm-2.171875-2.203125h2.203125q1.03125 0 1.59375-.515625.5625-.53125.5625-1.453125 0-.9375-.53125-1.46875-.53125-.546875-1.640625-.546875h-2.1875zm17.156128 1.3125h-5.25v3.546875h6.15625v2.203125h-8.890625v-13.265625h8.875v2.21875h-6.140625v3.15625h5.25zm9.994141 3.015625h-4.796875l-.90625 2.734375h-2.90625l4.9375-13.265625h2.53125l4.96875 13.265625h-2.90625zm-4.046875-2.21875h3.3125l-1.671875-4.953125zm19.3302.53125q-.15625 2.140625-1.578125 3.375-1.421875 1.234375-3.75 1.234375-2.5625 0-4.03125-1.71875-1.453125-1.71875-1.453125-4.71875v-.8125q0-1.90625.671875-3.359375.671875-1.46875 1.921875-2.25 1.265625-.78125 2.921875-.78125 2.296875 0 3.6875 1.234375 1.40625 1.234375 1.625 3.453125h-2.734375q-.09375-1.28125-.71875-1.859375-.609375-.578125-1.859375-.578125-1.375 0-2.046875.984375-.671875.96875-.703125 3.03125v1q0 2.15625.65625 3.15625.65625.984375 2.0625.984375 1.265625 0 1.875-.578125.625-.578125.71875-1.796875zm11.520569-6.625h-4.0625v11.046875h-2.734375v-11.046875h-4.015625v-2.21875h10.8125zm5.916687 5.859375q0 2.0625-.59375 3.96875-.59375 1.90625-1.703125 3.359375-1.109375 1.453125-2.375 2l-.515625-1.390625q1.296875-.96875 2.046875-3 .75-2.03125.765625-4.671875v-.484375q0-2.734375-.75-4.796875-.734375-2.078125-2.0625-3.125l.515625-1.390625q1.234375.53125 2.328125 1.953125 1.109375 1.40625 1.703125 3.28125.609375 1.875.640625 3.890625z" fill="#000"/><path d="m245.49866 271.81235h168.37796v94.677155h-168.37796z" fill="#ffd966" fill-rule="evenodd"/><path d="m295.81802 310.21155h-2.171875v4.859375h-2.734375v-13.265625h4.921875q2.359375 0 3.625 1.046875 1.28125 1.046875 1.28125 2.96875 0 1.359375-.59375 2.265625-.578125.90625-1.78125 1.4375l2.875 5.421875v.125h-2.9375zm-2.171875-2.203125h2.203125q1.03125 0 1.59375-.515625.5625-.53125.5625-1.453125 0-.9375-.53125-1.46875-.53125-.546875-1.640625-.546875h-2.1875zm20.062378.734375q0 1.953125-.703125 3.4375-.6875 1.46875-1.984375 2.28125-1.28125.796875-2.9375.796875-1.65625 0-2.953125-.796875-1.28125-.796875-2-2.265625-.703125-1.46875-.71875-3.390625v-.65625q0-1.953125.703125-3.4375.71875-1.484375 2-2.28125 1.28125-.8125 2.9375-.8125 1.671875 0 2.953125.8125 1.296875.796875 2 2.28125.703125 1.484375.703125 3.4375zm-2.765625-.609375q0-2.078125-.75-3.15625-.75-1.09375-2.125-1.09375-1.375 0-2.125 1.078125-.75 1.0625-.765625 3.125v.65625q0 2.03125.75 3.15625.75 1.109375 2.15625 1.109375 1.375 0 2.109375-1.078125.734375-1.078125.75-3.140625zm14.787079-6.328125v8.734375q0 2.1875-1.359375 3.453125-1.359375 1.265625-3.71875 1.265625-2.328125 0-3.703125-1.234375-1.359375-1.234375-1.375-3.375v-8.84375h2.734375v8.75q0 1.3125.609375 1.90625.625.59375 1.734375.59375 2.296875 0 2.34375-2.421875v-8.828125zm12.232727 2.21875h-4.0625v11.046875h-2.734375v-11.046875h-4.015625v-2.21875h10.8125zm4.4635925 11.046875h-2.734375v-13.265625h2.734375zm13.313385 0h-2.734375l-5.3125-8.734375v8.734375h-2.734375v-13.265625h2.734375l5.328125 8.75v-8.75h2.71875zm12.875458-1.671875q-.734375.875-2.078125 1.375-1.34375.484375-2.984375.484375-1.734375 0-3.03125-.75-1.296875-.765625-2-2.1875-.703125-1.4375-.71875-3.359375v-.90625q0-1.984375.671875-3.4375.671875-1.453125 1.921875-2.21875 1.265625-.78125 2.953125-.78125 2.359375 0 3.6875 1.125 1.34375 1.125 1.578125 3.28125h-2.65625q-.171875-1.140625-.796875-1.65625-.625-.53125-1.71875-.53125-1.40625 0-2.140625 1.046875-.71875 1.046875-.71875 3.109375v.84375q0 2.09375.78125 3.15625.796875 1.0625 2.328125 1.0625 1.546875 0 2.203125-.65625v-2.28125h-2.5v-2.015625h5.21875z" fill="#000"/><path d="m257.57257 331.6803q0-2.09375.546875-3.96875.5625-1.890625 1.640625-3.34375 1.09375-1.453125 2.359375-2.015625l.515625 1.421875q-1.328125.984375-2.078125 3.046875-.75 2.046875-.75 4.796875v.28125q0 2.765625.734375 4.84375.75 2.0625 2.09375 3.078125l-.515625 1.390625q-1.234375-.546875-2.3125-1.953125-1.0625-1.40625-1.625-3.25-.5625-1.84375-.609375-3.84375zm11.518463.53125h-2.171875v4.859375h-2.734375v-13.265625h4.921875q2.359375 0 3.625 1.046875 1.28125 1.046875 1.28125 2.96875 0 1.359375-.59375 2.265625-.578125.90625-1.78125 1.4375l2.875 5.421875v.125h-2.9375zm-2.171875-2.203125h2.203125q1.03125 0 1.59375-.515625.5625-.53125.5625-1.453125 0-.9375-.53125-1.46875-.53125-.546875-1.640625-.546875h-2.1875zm17.156128 1.3125h-5.25v3.546875h6.15625v2.203125h-8.890625v-13.265625h8.875v2.21875h-6.140625v3.15625h5.25zm9.994141 3.015625h-4.796875l-.90625 2.734375h-2.90625l4.9375-13.265625h2.53125l4.96875 13.265625h-2.90625zm-4.046875-2.21875h3.3125l-1.671875-4.953125zm19.33023.53125q-.15625 2.140625-1.578125 3.375-1.421875 1.234375-3.75 1.234375-2.5625 0-4.03125-1.71875-1.453125-1.71875-1.453125-4.71875v-.8125q0-1.90625.671875-3.359375.671875-1.46875 1.921875-2.25 1.265625-.78125 2.921875-.78125 2.296875 0 3.6875 1.234375 1.40625 1.234375 1.625 3.453125h-2.734375q-.09375-1.28125-.71875-1.859375-.609375-.578125-1.859375-.578125-1.375 0-2.046875.984375-.671875.96875-.703125 3.03125v1q0 2.15625.65625 3.15625.65625.984375 2.0625.984375 1.265625 0 1.875-.578125.625-.578125.71875-1.796875zm11.520508-6.625h-4.0625v11.046875h-2.734375v-11.046875h-4.015625v-2.21875h10.8125zm10.562592 6.1875h-2.171875v4.859375h-2.734375v-13.265625h4.921875q2.359375 0 3.625 1.046875 1.28125 1.046875 1.28125 2.96875 0 1.359375-.59375 2.265625-.578125.90625-1.78125 1.4375l2.875 5.421875v.125h-2.9375zm-2.171875-2.203125h2.203125q1.03125 0 1.59375-.515625.5625-.53125.5625-1.453125 0-.9375-.53125-1.46875-.53125-.546875-1.640625-.546875h-2.1875zm20.062347.734375q0 1.953125-.703125 3.4375-.6875 1.46875-1.984375 2.28125-1.28125.796875-2.9375.796875-1.65625 0-2.953125-.796875-1.28125-.796875-2-2.265625-.703125-1.46875-.71875-3.390625v-.65625q0-1.953125.703125-3.4375.71875-1.484375 2-2.28125 1.28125-.8125 2.9375-.8125 1.671875 0 2.953125.8125 1.296875.796875 2 2.28125.703125 1.484375.703125 3.4375zm-2.765625-.609375q0-2.078125-.75-3.15625-.75-1.09375-2.125-1.09375-1.375 0-2.125 1.078125-.75 1.0625-.765625 3.125v.65625q0 2.03125.75 3.15625.75 1.109375 2.15625 1.109375 1.375 0 2.109375-1.078125.734375-1.078125.75-3.140625zm14.787079-6.328125v8.734375q0 2.1875-1.359375 3.453125-1.359375 1.265625-3.71875 1.265625-2.328125 0-3.703125-1.234375-1.359375-1.234375-1.375-3.375v-8.84375h2.734375v8.75q0 1.3125.609375 1.90625.625.59375 1.734375.59375 2.296875 0 2.34375-2.421875v-8.828125zm12.232727 2.21875h-4.0625v11.046875h-2.734375v-11.046875h-4.015625v-2.21875h10.8125zm9.541748 5.296875h-5.25v3.546875h6.15625v2.203125h-8.890625v-13.265625h8.875v2.21875h-6.140625v3.15625h5.25zm7.4160156.890625h-2.171875v4.859375h-2.734375v-13.265625h4.921875q2.359375 0 3.625 1.046875 1.28125 1.046875 1.28125 2.96875 0 1.359375-.59375 2.265625-.578125.90625-1.78125 1.4375l2.875 5.421875v.125h-2.9375zm-2.171875-2.203125h2.203125q1.03125 0 1.59375-.515625.5625-.53125.5625-1.453125 0-.9375-.53125-1.46875-.53125-.546875-1.640625-.546875h-2.1875zm13.531097 1.875q0 2.0625-.59375 3.96875-.59375 1.90625-1.703125 3.359375-1.109375 1.453125-2.375 2l-.515625-1.390625q1.296875-.96875 2.046875-3 .75-2.03125.765625-4.671875v-.484375q0-2.734375-.75-4.796875-.734375-2.078125-2.0625-3.125l.515625-1.390625q1.234375.53125 2.328125 1.953125 1.109375 1.40625 1.703125 3.28125.609375 1.875.640625 3.890625z" fill="#000"/><path d="m698.95013 328.52625h168.37793v94.677155h-168.37793z" fill="#ffd966" fill-rule="evenodd"/><path d="m711.7787 371.78482v-13.265625h4.640625q2.421875 0 3.65625.921875 1.25.921875 1.25 2.71875 0 .96875-.5 1.71875-.5.734375-1.390625 1.078125 1.015625.265625 1.609375 1.046875.59375.765625.59375 1.875 0 1.921875-1.234375 2.90625-1.21875.984375-3.46875 1zm2.734375-5.78125v3.578125h2.34375q.953125 0 1.5-.453125.546875-.453125.546875-1.265625 0-1.828125-1.890625-1.859375zm0-1.921875h2.015625q2.0625-.046875 2.0625-1.65625 0-.890625-.53125-1.28125-.515625-.40625-1.640625-.40625h-1.90625zm19.203003-5.5625v8.734375q0 2.1875-1.359375 3.453125-1.359375 1.265625-3.71875 1.265625-2.328125 0-3.703125-1.234375-1.359375-1.234375-1.375-3.375v-8.84375h2.734375v8.75q0 1.3125.609375 1.90625.625.59375 1.734375.59375 2.296875 0 2.34375-2.421875v-8.828125zm9.123352 9.78125q0-.765625-.546875-1.171875-.546875-.421875-1.96875-.875-1.421875-.46875-2.25-.921875-2.265625-1.21875-2.265625-3.28125 0-1.078125.609375-1.921875.609375-.84375 1.734375-1.3125 1.140625-.484375 2.5625-.484375 1.40625 0 2.515625.515625 1.125.515625 1.734375 1.453125.609375.9375.609375 2.140625h-2.71875q0-.90625-.578125-1.40625-.578125-.515625-1.609375-.515625-1.015625 0-1.578125.421875-.546875.421875-.546875 1.109375 0 .65625.65625 1.09375.65625.4375 1.921875.8125 2.328125.703125 3.390625 1.75 1.0625 1.03125 1.0625 2.578125 0 1.71875-1.296875 2.703125-1.296875.984375-3.5.984375-1.53125 0-2.796875-.5625-1.25-.5625-1.921875-1.53125-.65625-.984375-.65625-2.265625h2.75q0 2.1875 2.625 2.1875.96875 0 1.515625-.390625.546875-.390625.546875-1.109375zm7.500122 3.484375h-2.734375v-13.265625h2.734375zm13.3133545 0h-2.734375l-5.3125-8.734375v8.734375h-2.734375v-13.265625h2.734375l5.328125 8.75v-8.75h2.71875zm10.375488-5.75h-5.25v3.546875h6.15625v2.203125h-8.890625v-13.265625h8.875v2.21875h-6.140625v3.15625h5.25zm9.384766 2.265625q0-.765625-.546875-1.171875-.546875-.421875-1.96875-.875-1.421875-.46875-2.25-.921875-2.265625-1.21875-2.265625-3.28125 0-1.078125.609375-1.921875.609375-.84375 1.734375-1.3125 1.140625-.484375 2.5625-.484375 1.40625 0 2.515625.515625 1.125.515625 1.734375 1.453125.609375.9375.609375 2.140625h-2.71875q0-.90625-.578125-1.40625-.578125-.515625-1.609375-.515625-1.015625 0-1.578125.421875-.546875.421875-.546875 1.109375 0 .65625.65625 1.09375.65625.4375 1.921875.8125 2.328125.703125 3.390625 1.75 1.0625 1.03125 1.0625 2.578125 0 1.71875-1.296875 2.703125-1.296875.984375-3.5.984375-1.53125 0-2.796875-.5625-1.25-.5625-1.921875-1.53125-.65625-.984375-.65625-2.265625h2.75q0 2.1875 2.625 2.1875.96875 0 1.515625-.390625.546875-.390625.546875-1.109375zm11.468811 0q0-.765625-.546875-1.171875-.546875-.421875-1.96875-.875-1.421875-.46875-2.25-.921875-2.265625-1.21875-2.265625-3.28125 0-1.078125.609375-1.921875.609375-.84375 1.734375-1.3125 1.140625-.484375 2.5625-.484375 1.40625 0 2.515625.515625 1.125.515625 1.734375 1.453125.609375.9375.609375 2.140625h-2.71875q0-.90625-.578125-1.40625-.578125-.515625-1.609375-.515625-1.015625 0-1.578125.421875-.546875.421875-.546875 1.109375 0 .65625.65625 1.09375.65625.4375 1.921875.8125 2.328125.703125 3.390625 1.75 1.0625 1.03125 1.0625 2.578125 0 1.71875-1.296875 2.703125-1.296875.984375-3.5.984375-1.53125 0-2.796875-.5625-1.25-.5625-1.921875-1.53125-.65625-.984375-.65625-2.265625h2.75q0 2.1875 2.625 2.1875.96875 0 1.515625-.390625.546875-.390625.546875-1.109375zm11.974121 1.28125h5.796875v2.203125h-8.53125v-13.265625h2.734375zm17.675354-4.125q0 1.953125-.703125 3.4375-.6875 1.46875-1.984375 2.28125-1.28125.796875-2.9375.796875-1.65625 0-2.953125-.796875-1.28125-.796875-2-2.265625-.703125-1.46875-.71875-3.390625v-.65625q0-1.953125.703125-3.4375.71875-1.484375 2-2.28125 1.28125-.8125 2.9375-.8125 1.671875 0 2.953125.8125 1.296875.796875 2 2.28125.703125 1.484375.703125 3.4375zm-2.765625-.609375q0-2.078125-.75-3.15625-.75-1.09375-2.125-1.09375-1.375 0-2.125 1.078125-.75 1.0625-.765625 3.125v.65625q0 2.03125.75 3.15625.75 1.109375 2.15625 1.109375 1.375 0 2.109375-1.078125.734375-1.078125.75-3.140625zm15.240173 5.265625q-.734375.875-2.078125 1.375-1.34375.484375-2.984375.484375-1.734375 0-3.03125-.75-1.296875-.765625-2-2.1875-.703125-1.4375-.71875-3.359375v-.90625q0-1.984375.671875-3.4375.671875-1.453125 1.921875-2.21875 1.265625-.78125 2.953125-.78125 2.359375 0 3.6875 1.125 1.34375 1.125 1.578125 3.28125h-2.65625q-.171875-1.140625-.796875-1.65625-.625-.53125-1.71875-.53125-1.40625 0-2.140625 1.046875-.71875 1.046875-.71875 3.109375v.84375q0 2.09375.78125 3.15625.796875 1.0625 2.328125 1.0625 1.546875 0 2.203125-.65625v-2.28125h-2.5v-2.015625h5.21875zm5.1296387 1.671875h-2.734375v-13.265625h2.734375zm12.9383545-4.421875q-.15625 2.140625-1.578125 3.375-1.421875 1.234375-3.75 1.234375-2.5625 0-4.03125-1.71875-1.453125-1.71875-1.453125-4.71875v-.8125q0-1.90625.671875-3.359375.671875-1.46875 1.921875-2.25 1.265625-.78125 2.921875-.78125 2.296875 0 3.6875 1.234375 1.40625 1.234375 1.625 3.453125h-2.734375q-.09375-1.28125-.71875-1.859375-.609375-.578125-1.859375-.578125-1.375 0-2.046875.984375-.671875.96875-.703125 3.03125v1q0 2.15625.65625 3.15625.65625.984375 2.0625.984375 1.265625 0 1.875-.578125.625-.578125.71875-1.796875z" fill="#000"/><path d="m722.3336 388.3942q0-2.09375.546875-3.96875.5625-1.890625 1.640625-3.34375 1.09375-1.453125 2.359375-2.015625l.515625 1.421875q-1.328125.984375-2.078125 3.046875-.75 2.046875-.75 4.796875v.28125q0 2.765625.734375 4.84375.75 2.0625 2.09375 3.078125l-.515625 1.390625q-1.234375-.546875-2.3125-1.953125-1.0625-1.40625-1.625-3.25-.5625-1.84375-.609375-3.84375zm11.955994-7.875h2.734375v9.1875q0 1.265625-.5625 2.234375-.5625.96875-1.578125 1.5-1.015625.53125-2.3125.53125-2.09375 0-3.28125-1.0625-1.171875-1.078125-1.171875-3.046875h2.75q0 .984375.40625 1.453125.421875.453125 1.296875.453125.796875 0 1.25-.53125.46875-.546875.46875-1.53125zm12.361328 10.53125h-4.796875l-.90625 2.734375h-2.90625l4.9375-13.265625h2.53125l4.96875 13.265625h-2.90625zm-4.046875-2.21875h3.3125l-1.671875-4.953125zm13.304199 1.671875 3.015625-9.984375h3.046875l-4.625 13.265625h-2.84375l-4.609375-13.265625h3.03125zm14.107788.546875h-4.796875l-.90625 2.734375h-2.90625l4.9375-13.265625h2.53125l4.96875 13.265625h-2.90625zm-4.046875-2.21875h3.3125l-1.671875-4.953125zm15.990356 1.46875q0-.765625-.546875-1.171875-.546875-.421875-1.96875-.875-1.421875-.46875-2.25-.921875-2.265625-1.21875-2.265625-3.28125 0-1.078125.609375-1.921875.609375-.84375 1.734375-1.3125 1.140625-.484375 2.5625-.484375 1.40625 0 2.515625.515625 1.125.515625 1.734375 1.453125.609375.9375.609375 2.140625h-2.71875q0-.90625-.578125-1.40625-.578125-.515625-1.609375-.515625-1.015625 0-1.578125.421875-.546875.421875-.546875 1.109375 0 .65625.65625 1.09375.65625.4375 1.921875.8125 2.328125.703125 3.390625 1.75 1.0625 1.03125 1.0625 2.578125 0 1.71875-1.296875 2.703125-1.296875.984375-3.5.984375-1.53125 0-2.796875-.5625-1.25-.5625-1.921875-1.53125-.65625-.984375-.65625-2.265625h2.75q0 2.1875 2.625 2.1875.96875 0 1.515625-.390625.546875-.390625.546875-1.109375zm15.000122-.9375q-.15625 2.140625-1.578125 3.375-1.421875 1.234375-3.75 1.234375-2.5625 0-4.03125-1.71875-1.453125-1.71875-1.453125-4.71875v-.8125q0-1.90625.671875-3.359375.671875-1.46875 1.921875-2.25 1.265625-.78125 2.921875-.78125 2.296875 0 3.6875 1.234375 1.40625 1.234375 1.625 3.453125h-2.734375q-.09375-1.28125-.71875-1.859375-.609375-.578125-1.859375-.578125-1.375 0-2.046875.984375-.671875.96875-.703125 3.03125v1q0 2.15625.65625 3.15625.65625.984375 2.0625.984375 1.265625 0 1.875-.578125.625-.578125.71875-1.796875zm6.706726-.4375h-2.171875v4.859375h-2.734375v-13.265625h4.921875q2.359375 0 3.625 1.046875 1.28125 1.046875 1.28125 2.96875 0 1.359375-.59375 2.265625-.578125.90625-1.78125 1.4375l2.875 5.421875v.125h-2.9375zm-2.171875-2.203125h2.203125q1.03125 0 1.59375-.515625.5625-.53125.5625-1.453125 0-.9375-.53125-1.46875-.53125-.546875-1.640625-.546875h-2.1875zm12.078003 7.0625h-2.734375v-13.265625h2.734375zm5.2664795-4.671875v4.671875h-2.734375v-13.265625h5.171875q1.5 0 2.625.546875 1.140625.546875 1.75 1.5625.609375 1 .609375 2.28125 0 1.953125-1.34375 3.078125-1.328125 1.125-3.6875 1.125zm0-2.21875h2.4375q1.078125 0 1.640625-.5.578125-.515625.578125-1.46875 0-.96875-.578125-1.5625-.5625-.609375-1.578125-.625h-2.5zm19.283691-4.15625h-4.0625v11.046875h-2.734375v-11.046875h-4.015625v-2.21875h10.8125zm5.916687 5.859375q0 2.0625-.59375 3.96875-.59375 1.90625-1.703125 3.359375-1.109375 1.453125-2.375 2l-.515625-1.390625q1.296875-.96875 2.046875-3 .75-2.03125.765625-4.671875v-.484375q0-2.734375-.75-4.796875-.734375-2.078125-2.0625-3.125l.515625-1.390625q1.234375.53125 2.328125 1.953125 1.109375 1.40625 1.703125 3.28125.609375 1.875.640625 3.890625z" fill="#000"/><path d="m489.82675 396.2848h168.37796v94.677155h-168.37796z" fill="#ffd966" fill-rule="evenodd"/><path d="m554.3723 425.059q0-.765625-.546875-1.171875-.546875-.421875-1.96875-.875-1.421875-.46875-2.25-.921875-2.265625-1.21875-2.265625-3.28125 0-1.078125.609375-1.921875.609375-.84375 1.734375-1.3125 1.140625-.484375 2.5625-.484375 1.40625 0 2.515625.515625 1.125.515625 1.734375 1.453125.609375.9375.609375 2.140625h-2.71875q0-.90625-.578125-1.40625-.578125-.515625-1.609375-.515625-1.015625 0-1.578125.421875-.546875.421875-.546875 1.109375 0 .65625.65625 1.09375.65625.4375 1.921875.8125 2.328125.703125 3.390625 1.75 1.0625 1.03125 1.0625 2.578125 0 1.71875-1.296875 2.703125-1.296875.984375-3.5.984375-1.53125 0-2.796875-.5625-1.25-.5625-1.921875-1.53125-.65625-.984375-.65625-2.265625h2.75q0 2.1875 2.625 2.1875.96875 0 1.515625-.390625.546875-.390625.546875-1.109375zm14.578247-7.5625h-4.0625v11.046875h-2.734375v-11.046875h-4.015625v-2.21875h10.8125zm7.947937 8.3125h-4.796875l-.90625 2.734375h-2.90625l4.9375-13.265625h2.53125l4.96875 13.265625h-2.90625zm-4.046875-2.21875h3.3125l-1.671875-4.953125zm18.006042-6.09375h-4.0625v11.046875h-2.734375v-11.046875h-4.015625v-2.21875h10.8125zm9.541748 5.296875h-5.25v3.546875h6.15625v2.203125h-8.890625v-13.265625h8.875v2.21875h-6.140625v3.15625h5.25z" fill="#000"/><path d="m514.143 437.27774 3.40625 9.625 3.390625-9.625h3.59375v13.265625h-2.75v-3.625l.28125-6.265625-3.578125 9.890625h-1.875l-3.578125-9.875.28125 6.25v3.625h-2.734375v-13.265625zm20.428345 10.53125h-4.796875l-.90625 2.734375h-2.90625l4.9375-13.265625h2.53125l4.96875 13.265625h-2.90625zm-4.046875-2.21875h3.3125l-1.671875-4.953125zm19.896667 4.953125h-2.734375l-5.3125-8.734375v8.734375h-2.734375v-13.265625h2.734375l5.328125 8.75v-8.75h2.71875zm10.03949-2.734375h-4.796875l-.90625 2.734375h-2.90625l4.9375-13.265625h2.53125l4.96875 13.265625h-2.90625zm-4.046875-2.21875h3.3125l-1.671875-4.953125zm19.408386 3.28125q-.734375.875-2.078125 1.375-1.34375.484375-2.984375.484375-1.734375 0-3.03125-.75-1.296875-.765625-2-2.1875-.703125-1.4375-.71875-3.359375v-.90625q0-1.984375.671875-3.4375.671875-1.453125 1.921875-2.21875 1.265625-.78125 2.953125-.78125 2.359375 0 3.6875 1.125 1.34375 1.125 1.578125 3.28125h-2.65625q-.171875-1.140625-.796875-1.65625-.625-.53125-1.71875-.53125-1.40625 0-2.140625 1.046875-.71875 1.046875-.71875 3.109375v.84375q0 2.09375.78125 3.15625.796875 1.0625 2.328125 1.0625 1.546875 0 2.203125-.65625v-2.28125h-2.5v-2.015625h5.21875zm10.207764-4.078125h-5.25v3.546875h6.15625v2.203125h-8.890625v-13.265625h8.875v2.21875h-6.140625v3.15625h5.25zm6.0722656-7.515625 3.40625 9.625 3.390625-9.625h3.59375v13.265625h-2.75v-3.625l.28125-6.265625-3.578125 9.890625h-1.875l-3.578125-9.875.28125 6.25v3.625h-2.734375v-13.265625zm20.764282 7.515625h-5.25v3.546875h6.15625v2.203125h-8.890625v-13.265625h8.875v2.21875h-6.140625v3.15625h5.25zm13.291016 5.75h-2.734375l-5.3125-8.734375v8.734375h-2.734375v-13.265625h2.734375l5.328125 8.75v-8.75h2.71875zm12.111145-11.046875h-4.0625v11.046875h-2.734375v-11.046875h-4.015625v-2.21875h10.8125z" fill="#000"/><path d="m539.2493 467.15274q0-2.09375.546875-3.96875.5625-1.890625 1.640625-3.34375 1.09375-1.453125 2.359375-2.015625l.515625 1.421875q-1.328125.984375-2.078125 3.046875-.75 2.046875-.75 4.796875v.28125q0 2.765625.734375 4.84375.75 2.0625 2.09375 3.078125l-.515625 1.390625q-1.234375-.546875-2.3125-1.953125-1.0625-1.40625-1.625-3.25-.5625-1.84375-.609375-3.84375zm11.518433.53125h-2.171875v4.859375h-2.734375v-13.265625h4.921875q2.359375 0 3.625 1.046875 1.28125 1.046875 1.28125 2.96875 0 1.359375-.59375 2.265625-.578125.90625-1.78125 1.4375l2.875 5.421875v.125h-2.9375zm-2.171875-2.203125h2.203125q1.03125 0 1.59375-.515625.5625-.53125.5625-1.453125 0-.9375-.53125-1.46875-.53125-.546875-1.640625-.546875h-2.1875zm17.156128 1.3125h-5.25v3.546875h6.15625v2.203125h-8.890625v-13.265625h8.875v2.21875h-6.140625v3.15625h5.25zm2.5097656 5.75v-13.265625h4.078125q1.75 0 3.125.796875 1.390625.78125 2.15625 2.234375.78125 1.453125.78125 3.296875v.609375q0 1.859375-.765625 3.296875-.765625 1.4375-2.15625 2.234375-1.375.78125-3.109375.796875zm2.734375-11.046875v8.84375h1.3125q1.609375 0 2.453125-1.046875.84375-1.046875.859375-2.984375v-.703125q0-2.03125-.84375-3.0625-.828125-1.046875-2.4375-1.046875zm19.42163-2.21875v8.734375q0 2.1875-1.359375 3.453125-1.359375 1.265625-3.71875 1.265625-2.328125 0-3.703125-1.234375-1.359375-1.234375-1.375-3.375v-8.84375h2.734375v8.75q0 1.3125.609375 1.90625.625.59375 1.734375.59375 2.296875 0 2.34375-2.421875v-8.828125zm6.998352 4.578125 2.484375-4.578125h3.140625l-3.859375 6.578125 3.953125 6.6875h-3.171875l-2.546875-4.640625-2.5625 4.640625h-3.171875l3.953125-6.6875-3.859375-6.578125h3.140625zm11.460815 3.5q0 2.0625-.59375 3.96875-.59375 1.90625-1.703125 3.359375-1.109375 1.453125-2.375 2l-.515625-1.390625q1.296875-.96875 2.046875-3 .75-2.03125.765625-4.671875v-.484375q0-2.734375-.75-4.796875-.734375-2.078125-2.0625-3.125l.515625-1.390625q1.234375.53125 2.328125 1.953125 1.109375 1.40625 1.703125 3.28125.609375 1.875.640625 3.890625z" fill="#000"/><path d="m245.49866 396.2848h168.37796v94.677155h-168.37796z" fill="#ffd966" fill-rule="evenodd"/><path d="m323.34708 425.809h-4.796875l-.90625 2.734375h-2.90625l4.9375-13.265625h2.53125l4.96875 13.265625h-2.90625zm-4.046875-2.21875h3.3125l-1.671875-4.953125zm11.849762.28125v4.671875h-2.734375v-13.265625h5.171875q1.5 0 2.625.546875 1.140625.546875 1.75 1.5625.609375 1 .609375 2.28125 0 1.953125-1.34375 3.078125-1.328125 1.125-3.6875 1.125zm0-2.21875h2.4375q1.078125 0 1.640625-.5.578125-.515625.578125-1.46875 0-.96875-.578125-1.5625-.5625-.609375-1.578125-.625h-2.5zm12.205505 6.890625h-2.734375v-13.265625h2.734375z" fill="#000"/><path d="m268.3027 450.54337h-2.734375v-13.265625h2.734375zm13.313385 0h-2.734375l-5.3125-8.734375v8.734375h-2.734375v-13.265625h2.734375l5.328125 8.75v-8.75h2.71875zm12.1111145-11.046875h-4.0625v11.046875h-2.734375v-11.046875h-4.015625v-2.21875h10.8125zm9.541748 5.296875h-5.25v3.546875h6.15625v2.203125h-8.890625v-13.265625h8.875v2.21875h-6.140625v3.15625h5.25zm12.994141 4.078125q-.734375.875-2.078125 1.375-1.34375.484375-2.984375.484375-1.734375 0-3.03125-.75-1.296875-.765625-2-2.1875-.703125-1.4375-.71875-3.359375v-.90625q0-1.984375.671875-3.4375.671875-1.453125 1.921875-2.21875 1.265625-.78125 2.953125-.78125 2.359375 0 3.6875 1.125 1.34375 1.125 1.578125 3.28125h-2.65625q-.171875-1.140625-.796875-1.65625-.625-.53125-1.71875-.53125-1.40625 0-2.140625 1.046875-.71875 1.046875-.71875 3.109375v.84375q0 2.09375.78125 3.15625.796875 1.0625 2.328125 1.0625 1.546875 0 2.203125-.65625v-2.28125h-2.5v-2.015625h5.21875zm7.129608-3.1875h-2.171875v4.859375h-2.734375v-13.265625h4.921875q2.359375 0 3.625 1.046875 1.28125 1.046875 1.28125 2.96875 0 1.359375-.59375 2.265625-.578125.90625-1.78125 1.4375l2.875 5.421875v.125h-2.9375zm-2.171875-2.203125h2.203125q1.03125 0 1.59375-.515625.5625-.53125.5625-1.453125 0-.9375-.53125-1.46875-.53125-.546875-1.640625-.546875h-2.1875zm16.656128 4.328125h-4.796875l-.90625 2.734375h-2.90625l4.9375-13.265625h2.53125l4.96875 13.265625h-2.90625zm-4.046875-2.21875h3.3125l-1.671875-4.953125zm18.006012-6.09375h-4.0625v11.046875h-2.734375v-11.046875h-4.015625v-2.21875h10.8125zm4.4635925 11.046875h-2.734375v-13.265625h2.734375zm13.42276-6.328125q0 1.953125-.703125 3.4375-.6875 1.46875-1.984375 2.28125-1.28125.796875-2.9375.796875-1.65625 0-2.953125-.796875-1.28125-.796875-2-2.265625-.703125-1.46875-.71875-3.390625v-.65625q0-1.953125.703125-3.4375.71875-1.484375 2-2.28125 1.28125-.8125 2.9375-.8125 1.671875 0 2.953125.8125 1.296875.796875 2 2.28125.703125 1.484375.703125 3.4375zm-2.765625-.609375q0-2.078125-.75-3.15625-.75-1.09375-2.125-1.09375-1.375 0-2.125 1.078125-.75 1.0625-.765625 3.125v.65625q0 2.03125.75 3.15625.75 1.109375 2.15625 1.109375 1.375 0 2.109375-1.078125.734375-1.078125.75-3.140625zm15.537079 6.9375h-2.734375l-5.3125-8.734375v8.734375h-2.734375v-13.265625h2.734375l5.328125 8.75v-8.75h2.71875zm9.266083-3.484375q0-.765625-.546875-1.171875-.546875-.421875-1.96875-.875-1.421875-.46875-2.25-.921875-2.265625-1.21875-2.265625-3.28125 0-1.078125.609375-1.921875.609375-.84375 1.734375-1.3125 1.140625-.484375 2.5625-.484375 1.40625 0 2.515625.515625 1.125.515625 1.734375 1.453125.609375.9375.609375 2.140625h-2.71875q0-.90625-.578125-1.40625-.578125-.515625-1.609375-.515625-1.015625 0-1.578125.421875-.546875.421875-.546875 1.109375 0 .65625.65625 1.09375.65625.4375 1.921875.8125 2.328125.703125 3.390625 1.75 1.0625 1.03125 1.0625 2.578125 0 1.71875-1.296875 2.703125-1.296875.984375-3.5.984375-1.53125 0-2.796875-.5625-1.25-.5625-1.921875-1.53125-.65625-.984375-.65625-2.265625h2.75q0 2.1875 2.625 2.1875.96875 0 1.515625-.390625.546875-.390625.546875-1.109375z" fill="#000"/><path d="m268.88217 467.15274q0-2.09375.546875-3.96875.5625-1.890625 1.640625-3.34375 1.09375-1.453125 2.359375-2.015625l.515625 1.421875q-1.328125.984375-2.078125 3.046875-.75 2.046875-.75 4.796875v.28125q0 2.765625.734375 4.84375.75 2.0625 2.09375 3.078125l-.515625 1.390625q-1.234375-.546875-2.3125-1.953125-1.0625-1.40625-1.625-3.25-.5625-1.84375-.609375-3.84375zm11.955963-7.875h2.734375v9.1875q0 1.265625-.5625 2.234375-.5625.96875-1.578125 1.5-1.015625.53125-2.3125.53125-2.09375 0-3.28125-1.0625-1.171875-1.078125-1.171875-3.046875h2.75q0 .984375.40625 1.453125.421875.453125 1.296875.453125.796875 0 1.25-.53125.46875-.546875.46875-1.53125zm12.361389 10.53125h-4.796875l-.90625 2.734375h-2.90625l4.9375-13.265625h2.53125l4.96875 13.265625h-2.90625zm-4.046875-2.21875h3.3125l-1.671875-4.953125zm13.304169 1.671875 3.015625-9.984375h3.046875l-4.625 13.265625h-2.84375l-4.609375-13.265625h3.03125zm14.107788.546875h-4.796875l-.90625 2.734375h-2.90625l4.9375-13.265625h2.53125l4.96875 13.265625h-2.90625zm-4.046875-2.21875h3.3125l-1.671875-4.953125zm15.990387 1.46875q0-.765625-.546875-1.171875-.546875-.421875-1.96875-.875-1.421875-.46875-2.25-.921875-2.265625-1.21875-2.265625-3.28125 0-1.078125.609375-1.921875.609375-.84375 1.734375-1.3125 1.140625-.484375 2.5625-.484375 1.40625 0 2.515625.515625 1.125.515625 1.734375 1.453125.609375.9375.609375 2.140625h-2.71875q0-.90625-.578125-1.40625-.578125-.515625-1.609375-.515625-1.015625 0-1.578125.421875-.546875.421875-.546875 1.109375 0 .65625.65625 1.09375.65625.4375 1.921875.8125 2.328125.703125 3.390625 1.75 1.0625 1.03125 1.0625 2.578125 0 1.71875-1.296875 2.703125-1.296875.984375-3.5.984375-1.53125 0-2.796875-.5625-1.25-.5625-1.921875-1.53125-.65625-.984375-.65625-2.265625h2.75q0 2.1875 2.625 2.1875.96875 0 1.515625-.390625.546875-.390625.546875-1.109375zm15.000092-.9375q-.15625 2.140625-1.578125 3.375-1.421875 1.234375-3.75 1.234375-2.5625 0-4.03125-1.71875-1.453125-1.71875-1.453125-4.71875v-.8125q0-1.90625.671875-3.359375.671875-1.46875 1.921875-2.25 1.265625-.78125 2.921875-.78125 2.296875 0 3.6875 1.234375 1.40625 1.234375 1.625 3.453125h-2.734375q-.09375-1.28125-.71875-1.859375-.609375-.578125-1.859375-.578125-1.375 0-2.046875.984375-.671875.96875-.703125 3.03125v1q0 2.15625.65625 3.15625.65625.984375 2.0625.984375 1.265625 0 1.875-.578125.625-.578125.71875-1.796875zm6.706726-.4375h-2.171875v4.859375h-2.734375v-13.265625h4.921875q2.359375 0 3.625 1.046875 1.28125 1.046875 1.28125 2.96875 0 1.359375-.59375 2.265625-.578125.90625-1.78125 1.4375l2.875 5.421875v.125h-2.9375zm-2.171875-2.203125h2.203125q1.03125 0 1.59375-.515625.5625-.53125.5625-1.453125 0-.9375-.53125-1.46875-.53125-.546875-1.640625-.546875h-2.1875zm12.078003 7.0625h-2.734375v-13.265625h2.734375zm5.2664795-4.671875v4.671875h-2.734375v-13.265625h5.171875q1.5 0 2.625.546875 1.140625.546875 1.75 1.5625.609375 1 .609375 2.28125 0 1.953125-1.34375 3.078125-1.328125 1.125-3.6875 1.125zm0-2.21875h2.4375q1.078125 0 1.640625-.5.578125-.515625.578125-1.46875 0-.96875-.578125-1.5625-.5625-.609375-1.578125-.625h-2.5zm19.28366-4.15625h-4.0625v11.046875h-2.734375v-11.046875h-4.015625v-2.21875h10.8125zm5.9167175 5.859375q0 2.0625-.59375 3.96875-.59375 1.90625-1.703125 3.359375-1.109375 1.453125-2.375 2l-.515625-1.390625q1.296875-.96875 2.046875-3 .75-2.03125.765625-4.671875v-.484375q0-2.734375-.75-4.796875-.734375-2.078125-2.0625-3.125l.515625-1.390625q1.234375.53125 2.328125 1.953125 1.109375 1.40625 1.703125 3.28125.609375 1.875.640625 3.890625z" fill="#000"/><path d="m508.88977 220.19948h369.51178v44.56694h-369.51178z" fill="none"/><path d="m530.62415 245.92697 3.375 1.0625q-.78125 2.8125-2.578125 4.1875-1.796875 1.359375-4.5625 1.359375-3.421875 0-5.625-2.34375-2.203125-2.34375-2.203125-6.390625 0-4.296875 2.203125-6.65625 2.21875-2.375 5.828125-2.375 3.15625 0 5.125 1.859375 1.171875 1.09375 1.765625 3.15625l-3.4375.828125q-.3125-1.34375-1.28125-2.109375-.953125-.78125-2.34375-.78125-1.90625 0-3.09375 1.375-1.1875 1.375-1.1875 4.4375 0 3.265625 1.171875 4.65625 1.171875 1.375 3.046875 1.375 1.375 0 2.375-.875 1-.890625 1.421875-2.765625zm6.4414062 6.3125v-17.046875h3.46875v14.15625h8.625v2.890625zm14.457031 0v-17.1875h3.46875v17.1875zm6.7773438 0v-17.1875h12.734375v2.90625h-9.265625v3.8125h8.625v2.890625h-8.625v4.6875h9.59375v2.890625zm16.039062 0v-17.1875h3.375l7.03125 11.484375v-11.484375h3.21875v17.1875h-3.46875l-6.9375-11.203125v11.203125zm21.160156 0v-14.28125h-5.09375v-2.90625h13.65625v2.90625h-5.09375v14.28125zm9.0859375-4.578125v-3.296875h6.46875v3.296875zm7.5078125-1.015625 3.375-.328125q.296875 1.703125 1.21875 2.5.9375.796875 2.53125.796875 1.671875 0 2.515625-.703125.859375-.71875.859375-1.671875 0-.609375-.359375-1.03125-.359375-.421875-1.25-.75-.609375-.203125-2.78125-.75-2.78125-.6875-3.90625-1.6875-1.59375-1.421875-1.59375-3.46875 0-1.3125.75-2.453125.75-1.140625 2.140625-1.734375 1.40625-.59375 3.390625-.59375 3.234375 0 4.859375 1.421875 1.640625 1.40625 1.71875 3.78125l-3.46875.140625q-.21875-1.3125-.953125-1.890625-.734375-.59375-2.203125-.59375-1.5 0-2.359375.625-.546875.40625-.546875 1.0625 0 .609375.515625 1.046875.65625.546875 3.1875 1.15625 2.53125.59375 3.734375 1.234375 1.21875.640625 1.90625 1.75.6875 1.09375.6875 2.734375 0 1.46875-.828125 2.765625-.8125 1.28125-2.3125 1.921875-1.5.625-3.75.625-3.25 0-5-1.5-1.75-1.515625-2.078125-4.40625zm16.773438 5.59375v-17.1875h3.46875v17.1875zm6.7617188-17.1875h6.34375q2.140625 0 3.265625.328125 1.515625.453125 2.59375 1.59375 1.078125 1.125 1.640625 2.78125.5625 1.640625.5625 4.0625 0 2.109375-.53125 3.65625-.640625 1.875-1.84375 3.03125-.890625.875-2.4375 1.375-1.140625.359375-3.0625.359375h-6.53125zm3.46875 2.90625v11.390625h2.59375q1.453125 0 2.09375-.171875.84375-.203125 1.390625-.703125.5625-.515625.90625-1.671875.359375-1.15625.359375-3.140625 0-2-.359375-3.0625-.34375-1.0625-.984375-1.65625-.625-.609375-1.59375-.8125-.71875-.171875-2.84375-.171875zm13.878906 14.28125v-17.1875h12.734375v2.90625h-9.265625v3.8125h8.625v2.890625h-8.625v4.6875h9.59375v2.890625zm33.660156-6.3125 3.375 1.0625q-.78125 2.8125-2.578125 4.1875-1.796875 1.359375-4.5625 1.359375-3.421875 0-5.625-2.34375-2.203125-2.34375-2.203125-6.390625 0-4.296875 2.203125-6.65625 2.21875-2.375 5.828125-2.375 3.15625 0 5.125 1.859375 1.171875 1.09375 1.765625 3.15625l-3.4375.828125q-.3125-1.34375-1.28125-2.109375-.953125-.78125-2.34375-.78125-1.90625 0-3.09375 1.375-1.1875 1.375-1.1875 4.4375 0 3.265625 1.171875 4.65625 1.171875 1.375 3.046875 1.375 1.375 0 2.375-.875 1-.890625 1.421875-2.765625zm5.6445312-2.171875q0-2.625.78125-4.40625.59375-1.3125 1.59375-2.359375 1.015625-1.046875 2.234375-1.546875 1.59375-.671875 3.703125-.671875 3.796875 0 6.0625 2.359375 2.28125 2.34375 2.28125 6.546875 0 4.15625-2.265625 6.515625-2.25 2.34375-6.03125 2.34375-3.84375 0-6.109375-2.34375-2.25-2.34375-2.25-6.4375zm3.578125-.125q0 2.921875 1.34375 4.4375 1.34375 1.5 3.421875 1.5 2.078125 0 3.40625-1.484375 1.328125-1.5 1.328125-4.5 0-2.953125-1.296875-4.40625-1.296875-1.453125-3.4375-1.453125-2.140625 0-3.453125 1.484375-1.3125 1.46875-1.3125 4.421875zm15.746094 8.609375v-17.1875h5.1875l3.125 11.71875 3.078125-11.71875h5.203125v17.1875h-3.21875v-13.53125l-3.421875 13.53125h-3.328125l-3.40625-13.53125v13.53125zm20.039062 0v-17.1875h5.5625q3.171875 0 4.125.265625 1.484375.390625 2.46875 1.6875 1 1.28125 1 3.34375 0 1.578125-.578125 2.65625-.5625 1.078125-1.453125 1.703125-.890625.609375-1.796875.796875-1.25.25-3.59375.25h-2.265625v6.484375zm3.46875-14.28125v4.875h1.890625q2.0625 0 2.75-.265625.6875-.265625 1.078125-.84375.390625-.578125.390625-1.328125 0-.9375-.546875-1.546875-.546875-.609375-1.390625-.765625-.625-.125-2.5-.125zm11.8359375 5.796875q0-2.625.78125-4.40625.59375-1.3125 1.59375-2.359375 1.015625-1.046875 2.234375-1.546875 1.59375-.671875 3.703125-.671875 3.796875 0 6.0625 2.359375 2.28125 2.34375 2.28125 6.546875 0 4.15625-2.265625 6.515625-2.25 2.34375-6.03125 2.34375-3.84375 0-6.109375-2.34375-2.25-2.34375-2.25-6.4375zm3.578125-.125q0 2.921875 1.34375 4.4375 1.34375 1.5 3.421875 1.5 2.078125 0 3.40625-1.484375 1.328125-1.5 1.328125-4.5 0-2.953125-1.296875-4.40625-1.296875-1.453125-3.4375-1.453125-2.140625 0-3.453125 1.484375-1.3125 1.46875-1.3125 4.421875zm15.824219 8.609375v-17.1875h3.375l7.03125 11.484375v-11.484375h3.21875v17.1875h-3.46875l-6.9375-11.203125v11.203125zm17.300781 0v-17.1875h12.734375v2.90625h-9.265625v3.8125h8.625v2.890625h-8.625v4.6875h9.59375v2.890625zm16.039062 0v-17.1875h3.375l7.03125 11.484375v-11.484375h3.21875v17.1875h-3.46875l-6.9375-11.203125v11.203125zm21.160156 0v-14.28125h-5.09375v-2.90625h13.65625v2.90625h-5.09375v14.28125zm9.925781-5.59375 3.375-.328125q.296875 1.703125 1.21875 2.5.9375.796875 2.53125.796875 1.671875 0 2.515625-.703125.859375-.71875.859375-1.671875 0-.609375-.359375-1.03125-.359375-.421875-1.25-.75-.609375-.203125-2.78125-.75-2.78125-.6875-3.90625-1.6875-1.59375-1.421875-1.59375-3.46875 0-1.3125.75-2.453125.75-1.140625 2.140625-1.734375 1.40625-.59375 3.390625-.59375 3.234375 0 4.859375 1.421875 1.640625 1.40625 1.71875 3.78125l-3.46875.140625q-.21875-1.3125-.953125-1.890625-.734375-.59375-2.203125-.59375-1.5 0-2.359375.625-.546875.40625-.546875 1.0625 0 .609375.515625 1.046875.65625.546875 3.1875 1.15625 2.53125.59375 3.734375 1.234375 1.21875.640625 1.90625 1.75.6875 1.09375.6875 2.734375 0 1.46875-.828125 2.765625-.8125 1.28125-2.3125 1.921875-1.5.625-3.75.625-3.25 0-5-1.5-1.75-1.515625-2.078125-4.40625z" fill="#bf9000"/><path d="m351.20865 615.43304h186.01578" fill="none"/><path d="m369.20865 615.43304h150.01578" fill-rule="evenodd" stroke="#999" stroke-linecap="butt" stroke-linejoin="round" stroke-width="3"/><path d="m369.20865 610.47784-13.614288 4.9552 13.614288 4.9552z" fill="#999" fill-rule="evenodd" stroke="#999" stroke-linecap="butt" stroke-width="3"/><path d="m519.2244 620.38824 13.614258-4.9552-13.614258-4.9552z" fill="#999" fill-rule="evenodd" stroke="#999" stroke-linecap="butt" stroke-width="3"/><path d="m124.53937 568.0945v-198.2677" fill="none"/><g fill-rule="evenodd"><path d="m124.53937 550.0945v-162.2677" stroke="#999" stroke-linecap="butt" stroke-linejoin="round" stroke-width="3"/><path d="m119.584175 550.0945 4.9551926 13.614319 4.9552-13.614319z" fill="#999" stroke="#999" stroke-linecap="butt" stroke-width="3"/><path d="m129.49457 387.82678-4.9552-13.614319-4.9551926 13.614319z" fill="#999" stroke="#999" stroke-linecap="butt" stroke-width="3"/><path d="m59.59449 275.15878h129.88977v94.677185h-129.88977z" fill="#93c47d"/></g><path d="m111.071884 307.4174h-2.734375v-5.6875h-5.328125v5.6875h-2.734375v-13.265625h2.734375v5.375h5.328125v-5.375h2.734375zm12.104614-11.046875h-4.0625v11.046875h-2.734375v-11.046875h-4.015625v-2.21875h10.8125zm5.119858-2.21875 3.40625 9.625 3.390625-9.625h3.59375v13.265625h-2.75v-3.625l.28125-6.265625-3.578125 9.890625h-1.875l-3.5781174-9.875.28125 6.25v3.625h-2.734375v-13.265625zm15.514313 11.0625h5.796875v2.203125h-8.53125v-13.265625h2.734375z" fill="#000"/><path d="m82.88553 318.3705h-4.0625v11.046875h-2.734375v-11.046875h-4.015625v-2.21875h10.8125zm9.541733 5.296875h-5.25v3.546875h6.15625v2.203125h-8.890625v-13.265625h8.875v2.21875h-6.140625v3.15625h5.25zm6.0722656-7.515625 3.40625 9.625 3.390625-9.625h3.59375v13.265625h-2.75v-3.625l.28125-6.265625-3.578125 9.890625h-1.875l-3.578125-9.875.28125 6.25v3.625h-2.734375v-13.265625zm15.514313 8.59375v4.671875h-2.734375v-13.265625h5.171875q1.5 0 2.625.546875 1.140625.546875 1.75 1.5625.609375 1 .609375 2.28125 0 1.953125-1.34375 3.078125-1.328125 1.125-3.6875 1.125zm0-2.21875h2.4375q1.078125 0 1.640625-.5.578125-.515625.578125-1.46875 0-.96875-.578125-1.5625-.5625-.609375-1.578125-.625h-2.5zm12.033653 4.6875h5.7968674v2.203125h-8.53125v-13.265625h2.7343826zm15.025597-.53125h-4.796875l-.90625 2.734375h-2.90625l4.9375-13.265625h2.53125l4.96875 13.265625h-2.90625zm-4.046875-2.21875h3.3125l-1.671875-4.953125zm18.006012-6.09375h-4.0625v11.046875h-2.734375v-11.046875h-4.015625v-2.21875h10.8125zm9.541733 5.296875h-5.25v3.546875h6.15625v2.203125h-8.890625v-13.265625h8.875v2.21875h-6.140625v3.15625h5.25zm9.384766 2.265625q0-.765625-.546875-1.171875-.546875-.421875-1.96875-.875-1.421875-.46875-2.25-.921875-2.265625-1.21875-2.265625-3.28125 0-1.078125.609375-1.921875.609375-.84375 1.734375-1.3125 1.140625-.484375 2.5625-.484375 1.40625 0 2.515625.515625 1.125.515625 1.734375 1.453125.609375.9375.609375 2.140625h-2.71875q0-.90625-.578125-1.40625-.578125-.515625-1.609375-.515625-1.015625 0-1.578125.421875-.546875.421875-.546875 1.109375 0 .65625.65625 1.09375.65625.4375 1.921875.8125 2.328125.703125 3.390625 1.75 1.0625 1.03125 1.0625 2.578125 0 1.71875-1.296875 2.703125-1.296875.984375-3.5.984375-1.53125 0-2.796875-.5625-1.25-.5625-1.921875-1.53125-.65625-.984375-.65625-2.265625h2.75q0 2.1875 2.625 2.1875.96875 0 1.515625-.390625.546875-.390625.546875-1.109375z" fill="#000"/><path d="m82.27133 346.02676q0-2.09375.546875-3.96875.5625-1.890625 1.640625-3.34375 1.09375-1.453125 2.359375-2.015625l.515625 1.421875q-1.328125.984375-2.078125 3.046875-.75 2.046875-.75 4.796875v.28125q0 2.765625.734375 4.84375.75 2.0625 2.09375 3.078125l-.515625 1.390625q-1.234375-.546875-2.3125-1.953125-1.0625-1.40625-1.625-3.25-.5625-1.84375-.609375-3.84375zm6.6122284 5.390625v-13.265625h4.078125q1.75 0 3.125.796875 1.390625.78125 2.15625 2.234375.78125 1.453125.78125 3.296875v.609375q0 1.859375-.765625 3.296875-.765625 1.4375-2.15625 2.234375-1.375.78125-3.109375.796875zm2.734375-11.046875v8.84375h1.3125q1.609375 0 2.453125-1.046875.84375-1.046875.859375-2.984375v-.703125q0-2.03125-.84375-3.0625-.828125-1.046875-2.4375-1.046875zm14.734116-2.21875h2.734375v9.1875q0 1.265625-.5625 2.234375-.5625.96875-1.578125 1.5-1.015625.53125-2.3125.53125-2.09375 0-3.28125-1.0625-1.171875-1.078125-1.171875-3.046875h2.75q0 .984375.40625 1.453125.421875.453125 1.296875.453125.796875 0 1.25-.53125.46875-.546875.46875-1.53125zm12.361374 10.53125h-4.796875l-.90625 2.734375h-2.90625l4.9375-13.265625h2.53125l4.96875 13.265625h-2.90625zm-4.046875-2.21875h3.3125l-1.671875-4.953125zm19.896637 4.953125h-2.734375l-5.3124924-8.734375v8.734375h-2.734375v-13.265625h2.734375l5.3281174 8.75v-8.75h2.71875zm12.875458-1.671875q-.734375.875-2.078125 1.375-1.34375.484375-2.984375.484375-1.734375 0-3.03125-.75-1.296875-.765625-2-2.1875-.703125-1.4375-.71875-3.359375v-.90625q0-1.984375.671875-3.4375.671875-1.453125 1.921875-2.21875 1.265625-.78125 2.953125-.78125 2.359375 0 3.6875 1.125 1.34375 1.125 1.578125 3.28125h-2.65625q-.171875-1.140625-.796875-1.65625-.625-.53125-1.71875-.53125-1.40625 0-2.140625 1.046875-.71875 1.046875-.71875 3.109375v.84375q0 2.09375.78125 3.15625.796875 1.0625 2.328125 1.0625 1.546875 0 2.203125-.65625v-2.28125h-2.5v-2.015625h5.21875zm13.113998-4.65625q0 1.953125-.703125 3.4375-.6875 1.46875-1.984375 2.28125-1.28125.796875-2.9375.796875-1.65625 0-2.953125-.796875-1.28125-.796875-2-2.265625-.703125-1.46875-.71875-3.390625v-.65625q0-1.953125.703125-3.4375.71875-1.484375 2-2.28125 1.28125-.8125 2.9375-.8125 1.671875 0 2.953125.8125 1.296875.796875 2 2.28125.703125 1.484375.703125 3.4375zm-2.765625-.609375q0-2.078125-.75-3.15625-.75-1.09375-2.125-1.09375-1.375 0-2.125 1.078125-.75 1.0625-.765625 3.125v.65625q0 2.03125.75 3.15625.75 1.109375 2.15625 1.109375 1.375 0 2.109375-1.078125.734375-1.078125.75-3.140625zm9.115204 1.75q0 2.0625-.59375 3.96875-.59375 1.90625-1.703125 3.359375-1.109375 1.453125-2.375 2l-.515625-1.390625q1.296875-.96875 2.046875-3 .75-2.03125.765625-4.671875v-.484375q0-2.734375-.75-4.796875-.734375-2.078125-2.0625-3.125l.515625-1.390625q1.234375.53125 2.328125 1.953125 1.109375 1.40625 1.703125 3.28125.609375 1.875.640625 3.890625z" fill="#000"/><path d="m124.53937 275.15878v-91.52754" fill="none"/><path d="m124.53937 257.15878v-55.527542" fill-rule="evenodd" stroke="#999" stroke-linecap="butt" stroke-linejoin="round" stroke-width="3"/><path d="m119.584175 257.15878 4.9551926 13.614288 4.9552-13.614288z" fill="#999" fill-rule="evenodd" stroke="#999" stroke-linecap="butt" stroke-width="3"/><path d="m129.49457 201.63123-4.9552-13.614288-4.9551926 13.614288z" fill="#999" fill-rule="evenodd" stroke="#999" stroke-linecap="butt" stroke-width="3"/><path d="m331.01968 268.61154v-60.191315h-43.93701v-24.78505" fill="none"/><path d="m331.01968 250.61154v-42.191315h-43.93701v-6.7850494" fill-rule="evenodd" stroke="#999" stroke-linecap="butt" stroke-linejoin="round" stroke-width="3"/><path d="m326.06448 250.61154 4.9552 13.614288 4.9552-13.614288z" fill="#999" fill-rule="evenodd" stroke="#999" stroke-linecap="butt" stroke-width="3"/><path d="m292.03787 201.63516-4.9552-13.614288-4.9552 13.614288z" fill="#999" fill-rule="evenodd" stroke="#999" stroke-linecap="butt" stroke-width="3"/><path d="m329.68765 271.81235v-62.277298h257.79526v-25.911697" fill="none"/><path d="m329.68765 253.81233v-44.277283h257.79526v-7.9116974" fill-rule="evenodd" stroke="#999" stroke-linecap="butt" stroke-linejoin="round" stroke-width="3"/><path d="m324.73245 253.81233 4.9552 13.614304 4.9552-13.614304z" fill="#999" fill-rule="evenodd" stroke="#999" stroke-linecap="butt" stroke-width="3"/><path d="m592.4381 201.62335-4.9552-13.614288-4.9552 13.614288z" fill="#999" fill-rule="evenodd" stroke="#999" stroke-linecap="butt" stroke-width="3"/><path d="m489.82806 320.38846-75.93701-1.228363" fill="none"/><path d="m489.82806 320.38846-75.93701-1.228363" fill-rule="evenodd" stroke="#ffd966" stroke-linecap="butt" stroke-linejoin="round" stroke-width="4"/><path d="m489.82675 443.62335h-75.93701" fill="none"/><path d="m489.82675 443.62335h-75.93701" fill-rule="evenodd" stroke="#ffd966" stroke-linecap="butt" stroke-linejoin="round" stroke-width="4"/><path d="m574.017 367.72702v28.566956" fill="none"/><path d="m574.017 367.72702v28.566956" fill-rule="evenodd" stroke="#ffd966" stroke-linecap="butt" stroke-linejoin="round" stroke-width="4"/><path d="m698.95013 375.86484-40.75592 67.74802" fill="none"/><path d="m698.95013 375.86484-40.75592 67.74802" fill-rule="evenodd" stroke="#ffd966" stroke-linecap="butt" stroke-linejoin="round" stroke-width="4"/><path d="m658.206 320.38846 40.75592 55.46457" fill="none"/><path d="m658.206 320.38846 40.75592 55.46457" fill-rule="evenodd" stroke="#ffd966" stroke-linecap="butt" stroke-linejoin="round" stroke-width="4"/><path d="m329.68765 490.96194v38.56613h-43.433075v38.56775" fill="none"/><path d="m329.68765 508.96194v20.566132h-43.433075v20.567749" fill-rule="evenodd" stroke="#999" stroke-linecap="butt" stroke-linejoin="round" stroke-width="3"/><path d="m334.64285 508.96194-4.9552-13.614288-4.9552 13.614288z" fill="#999" fill-rule="evenodd" stroke="#999" stroke-linecap="butt" stroke-width="3"/><path d="m281.29938 550.0958 4.9552 13.614258 4.9552-13.614258z" fill="#999" fill-rule="evenodd" stroke="#999" stroke-linecap="butt" stroke-width="3"/><path d="m329.68765 490.96194v38.56613h272.47244v38.56775" fill="none"/><path d="m329.68765 508.96194v20.566132h272.47238v20.567749" fill-rule="evenodd" stroke="#999" stroke-linecap="butt" stroke-linejoin="round" stroke-width="3"/><path d="m334.64285 508.96194-4.9552-13.614288-4.9552 13.614288z" fill="#999" fill-rule="evenodd" stroke="#999" stroke-linecap="butt" stroke-width="3"/><path d="m597.2049 550.0958 4.955139 13.614258 4.9552-13.614258z" fill="#999" fill-rule="evenodd" stroke="#999" stroke-linecap="butt" stroke-width="3"/><path d="m329.68765 490.96194v38.56613h434.20468v38.56775" fill="none"/><path d="m329.68765 508.96194v20.566132h434.20474v20.567749" fill-rule="evenodd" stroke="#999" stroke-linecap="butt" stroke-linejoin="round" stroke-width="3"/><path d="m334.64285 508.96194-4.9552-13.614288-4.9552 13.614288z" fill="#999" fill-rule="evenodd" stroke="#999" stroke-linecap="butt" stroke-width="3"/><path d="m758.9372 550.0958 4.9552 13.614258 4.9552-13.614258z" fill="#999" fill-rule="evenodd" stroke="#999" stroke-linecap="butt" stroke-width="3"/></g></svg>