<svg xmlns="http://www.w3.org/2000/svg" xmlns:xlink="http://www.w3.org/1999/xlink" version="1.1" x="0px" y="0px" width="700px" height="150px" viewBox="0 0 700 150" enable-background="new 0 0 700 150" xml:space="preserve">
<g>
	<!--<path fill="#FFFFFF" d="M594.849 3.171c-14.052 0-27.403 2.073-39.492 5.783c-12.088-3.71-25.44-5.783-39.492-5.783 c-26.317 0-50.198 7.236-67.834 18.996C431.473 13 410 8 388 8.01c-21.375 0-41.138 4.779-57.264 12 C314.129 11 292 5 269 5.59c-33.375 0-62.842 11.625-80.597 29.379c-17.341-21.265-48.22-35.428-83.445-35.428 c-54.258 0-98.243 33.581-98.243 75.006c0 41 43 75 98 75.003c35.464 0 66.533-14.35 83.806-35.855 c17.791 17 47 29 80 29.024c21.375 0 41.138-4.779 57.264-12.869c16.884 9 38 15 61 15 c26.317 0 50.198-7.236 67.834-18.994c16.558 8 37 14 59 14.155c14.052 0 27.403-2.073 39.492-5.783 c12.088 3 25 5 39 5.783c54.258 0 98.243-30.699 98.243-68.563C693.092 33 649 3 594 3.171z"/>-->
	<g>
		<polyline fill="#DF2834" points="306,99 322,108 321,108 306,99 306,99"/>
		<polyline fill="#DE1B30" points="276,99 276,99 261,108 276,99"/>
		<g>
			<polyline fill="#E8695E" points="298,99 291,112 285,99 276,99 261,108 281,108 291,129 302,108 322,108 321,108 322,108 306,99 298,99"/>
			<path fill="#E4504B" d="M291.941 48.455l0.033 20.856l-0.006 0.012l14.965 30.121l0.015 0.009h0.015l15.027 9.239L291.941 48 M291.932 48.436v0.019l0.006-0.009L291.932 48"/>
			<path fill="#E0343A" d="M291.932 48.455l-30.217 60.303l15.081-9.305h0.127l0.014-0.009l15.031-30.121l-0.006-0.012 L291.932 48 M291.941 48.436l-0.004 0.009l0.004 0.009V48.436"/>
			<polyline fill="#DE172F" points="291,48 291,48 291,69 291,69 291,69 291,48 291,48"/>
		</g>
		<polygon fill="#253883" points="451,59 451,48 406,48 395,48 395,59 395,97 395,108 406,108 451,108 451,97 406,97 406,83 451,83 451,73 406,73 406,59"/>
		<polygon fill="#253883" points="388,48 373,48 339,78 339,48 328,48 328,108 339,108 339,91 350,82 375,108 388,108 359,74"/>
		<rect x="478" y="48" fill="#253883" width="56" height="10"/>
		<polygon fill="#253883" points="524,73 524,97 489,97 489,73 478,73 478,97 478,108 489,108 535,108 535,98 535,97 535,73"/>
		<rect x="541" y="48" fill="#253883" width="56" height="10"/>
		<polygon fill="#253883" points="598,73 552,73 543,73 541,73 541,108 552,108 552,83 598,83"/>
		<rect x="605" y="48" fill="#253883" width="74" height="10"/>
		<polygon fill="#253883" points="662,73 616,73 607,73 605,73 605,108 616,108 616,83 662,83"/>
		<polygon fill="#253883" points="192,48 192,59 244,59 244,108 255,108 255,59 267,59 267,48"/>
	</g>
	<g>
		<polyline fill="#E8695E" points="35,72 54,91 44,121 74,111 93,130 92,130 92,130 87,106 79,99 60,105 66,86 58,78 35,72"/>
		<path fill="#E4504B" d="M122.001 44.142l-19.936 19.911l-0.017 0.002l-14.567 42.908l0.005 0.019L87.5 107l5.473 23 L122.001 44 M122.008 44.119l-0.015 0.014l0.012-0.002L122.008 44"/>
		<polyline fill="#DF2834" points="87,106 92,130 92,130 87,107 87,106"/>
		<path fill="#E0343A" d="M121.993 44.133L35.466 72.938l23.284 5.439l0.121 0.118l0.024 0.007l43.154-14.446l0.005-0.014 L121.993 44 M122.017 44.126l-0.012 0.005l-0.004 0.012L122.017 44"/>
		<polyline fill="#DE1B30" points="35,72 58,78 58,78 35,72"/>
		<polyline fill="#DE172F" points="122,44 121,44 102,64 102,64 102,64 122,44 122,44"/>
		<path fill="#253883" d="M138.371 27.906C114.613 4 76 3 53 26.977c-8.66 8.622-14.031 19.318-16.138 30 l19.688-6.552c2.009-4.407 4.77-8.532 8.389-12.133c15.537-15.469 40.519-16.135 57.747-2.287l10.357-3.447l0.018-0.019 l-0.004 0.014l0.013-0.002l-0.019 0.017l-3.482 10.304c13.868 17 13 41.989-2.335 57 c-3.883 3.863-8.366 6.765-13.158 8.787l-6.528 19.316c11.634-1.971 22.727-7.365 31.621-16.221 C162.545 89 162 51 138 27.906z"/>
	</g>
</g>
</svg>