<svg xmlns="http://www.w3.org/2000/svg" viewBox="0 0 1024 1024">
  <path fill-rule="evenodd" clip-rule="evenodd" d="m627.818 807.645 1.189-.193c5.806 12.151 14.717 34.376 20.278 65.442 7.831 43.75 11.736 94.527 13.659 131.016 208.885-64.538 360.666-259.329 360.666-489.605C1023.61 231.367 794.467 2 511.805 2 229.143 2 0 231.367 0 514.305c0 259.39 192.589 473.756 442.444 507.645 3.23-24.377 9.752-69.383 18.75-110.658 8.84-40.548 25.775-67.531 38.174-82.838l.958-.156c-30.083-.632-58.287-1.458-58.287-1.458s-27.144-.61-48.24-13.679c-38.522-23.865-70.995-60.188-70.995-60.188s-14.105-5.758-31.856-5.471c-38.681.625-81.008 7.295-81.008 7.295s7.367-15.437 22.756-30.094c21.474-20.453 50.969-40.125 50.969-40.125s-34.749.784-64.623 5.472c-45.672 7.167-86.468 18.239-86.468 18.239s29.827-36.401 64.624-55.629c40.294-22.265 85.557-27.358 85.557-27.358s-8.608-5.574-22.754-10.943c-15.889-6.03-37.318-11.855-37.318-11.855s11.988-7.461 37.318-12.767c22.373-4.687 55.665-7.611 61.81-8.125.135-23.45 1.189-61.21 5.83-96.415 4.601-34.902 13.864-66.484 18.841-81.842-56 42.812-99.511 91.893-99.511 91.893s16.423-42.731 39.475-83.898c17.283-30.876 41.195-60.187 41.195-60.187s-25.355 9.067-63.889 29.182c-32.226 16.818-77.641 44.684-77.641 44.684s45.063-57.712 115.557-100.188c-3.447-1.573-11.129-5.538-14.558-10.965-13.153-20.819-19.003-44.147-19.003-44.147s22.892-7.082 50.676-3.603c40.011 5.009 76.54 19.01 87.356 23.429 8.486-1.536 13.699-2.228 13.699-2.228s-28.105-41.068-24.382-89.369c3.798-49.275 39.391-105.7844 39.391-105.7844s-2.066 90.4614 11.554 128.5824c23.049 64.472 61.792 76.602 61.792 76.602s21.974 4.119 51.915 11.856c26.529 6.854 61.029 17.326 61.029 17.326s55.835-19.065 102.078-26.446c59.457-9.49 109.335-7.295 109.335-7.295s-1.37 52.384-20.965 80.25c-44.234 62.872-106.718 101.225-106.718 101.225s-.964 26.441-3.684 49.244c-3.259 27.314-7.112 58.006-9.103 73.745 40.107-6.254 86.747-10.136 86.747-10.136s-2.511 2.808-18.675 19.937c-7.501 7.949-25.94 29.182-25.94 29.182s49.777-1.174 100.121 10.943c31.118 7.49 62.803 28.27 62.803 28.27s-40.469-1.794-65.534 0c-32.277 2.31-49.15 8.207-49.15 8.207s13.113 1.446 21.845 10.032c15.844 15.58 27.305 38.301 27.305 38.301h-15.473s-74.917-4.727-90.109-1.824c-8.573 1.638-16.783 7.461-23.665 10.943-25.976 13.144-36.408 34.654-36.408 34.654s-13.731 20.757-38.129 31.873Z" fill="light-dark(#151515, #ffffff)"/>
</svg>
